<?xml version="1.0" encoding="UTF-8"?>
<svg xmlns="http://www.w3.org/2000/svg" viewBox="0 0 895 342" role="img" aria-labelledby="title desc">
  <title id="title">Holiday Kenya Safaris logo</title>
  <desc id="desc">Compass monogram HKS with Holiday Kenya Safaris wordmark.</desc>
  <g fill-rule="evenodd" clip-rule="evenodd">
    <path fill="#182B3A" d="M 279.00 204.00 L 277.00 204.00 L 276.00 205.00 L 274.00 205.00 L 273.00 206.00 L 270.00 206.00 L 269.00 207.00 L 267.00 207.00 L 267.00 209.00 L 266.00 210.00 L 266.00 211.00 L 265.00 212.00 L 265.00 213.00 L 264.00 214.00 L 264.00 215.00 L 263.00 216.00 L 263.00 218.00 L 262.00 219.00 L 262.00 220.00 L 260.00 222.00 L 260.00 223.00 L 259.00 224.00 L 259.00 225.00 L 258.00 226.00 L 258.00 227.00 L 256.00 229.00 L 256.00 230.00 L 253.00 233.00 L 253.00 234.00 L 250.00 237.00 L 250.00 238.00 L 236.00 252.00 L 235.00 252.00 L 231.00 256.00 L 230.00 256.00 L 228.00 258.00 L 227.00 258.00 L 225.00 260.00 L 224.00 260.00 L 222.00 262.00 L 221.00 262.00 L 220.00 263.00 L 219.00 263.00 L 218.00 264.00 L 217.00 264.00 L 216.00 265.00 L 215.00 265.00 L 214.00 266.00 L 213.00 266.00 L 212.00 267.00 L 211.00 267.00 L 210.00 268.00 L 208.00 268.00 L 207.00 269.00 L 205.00 269.00 L 203.00 271.00 L 203.00 273.00 L 202.00 274.00 L 202.00 277.00 L 201.00 278.00 L 201.00 280.00 L 200.00 281.00 L 200.00 282.00 L 201.00 281.00 L 204.00 281.00 L 205.00 280.00 L 207.00 280.00 L 208.00 279.00 L 210.00 279.00 L 211.00 278.00 L 213.00 278.00 L 214.00 277.00 L 215.00 277.00 L 216.00 276.00 L 218.00 276.00 L 219.00 275.00 L 220.00 275.00 L 221.00 274.00 L 222.00 274.00 L 223.00 273.00 L 224.00 273.00 L 225.00 272.00 L 226.00 272.00 L 228.00 270.00 L 229.00 270.00 L 230.00 269.00 L 231.00 269.00 L 233.00 267.00 L 234.00 267.00 L 236.00 265.00 L 237.00 265.00 L 240.00 262.00 L 241.00 262.00 L 245.00 258.00 L 246.00 258.00 L 255.00 249.00 L 255.00 248.00 L 260.00 243.00 L 260.00 242.00 L 263.00 239.00 L 263.00 238.00 L 265.00 236.00 L 265.00 235.00 L 267.00 233.00 L 267.00 232.00 L 268.00 231.00 L 268.00 230.00 L 269.00 229.00 L 269.00 228.00 L 271.00 226.00 L 271.00 225.00 L 272.00 224.00 L 272.00 223.00 L 273.00 222.00 L 273.00 220.00 L 274.00 219.00 L 274.00 218.00 L 275.00 217.00 L 275.00 215.00 L 276.00 214.00 L 276.00 213.00 L 277.00 212.00 L 277.00 210.00 L 278.00 209.00 L 278.00 206.00 L 279.00 205.00 Z M 63.00 202.00 L 63.00 205.00 L 64.00 206.00 L 64.00 208.00 L 65.00 209.00 L 65.00 211.00 L 66.00 212.00 L 66.00 214.00 L 67.00 215.00 L 67.00 216.00 L 68.00 217.00 L 68.00 219.00 L 69.00 220.00 L 69.00 221.00 L 70.00 222.00 L 70.00 223.00 L 71.00 224.00 L 71.00 225.00 L 72.00 226.00 L 72.00 227.00 L 74.00 229.00 L 74.00 230.00 L 75.00 231.00 L 75.00 232.00 L 77.00 234.00 L 77.00 235.00 L 79.00 237.00 L 79.00 238.00 L 81.00 240.00 L 81.00 241.00 L 85.00 245.00 L 85.00 246.00 L 97.00 258.00 L 98.00 258.00 L 102.00 262.00 L 103.00 262.00 L 106.00 265.00 L 107.00 265.00 L 109.00 267.00 L 110.00 267.00 L 112.00 269.00 L 113.00 269.00 L 114.00 270.00 L 115.00 270.00 L 116.00 271.00 L 117.00 271.00 L 119.00 273.00 L 120.00 273.00 L 121.00 274.00 L 122.00 274.00 L 123.00 275.00 L 125.00 275.00 L 126.00 276.00 L 127.00 276.00 L 128.00 277.00 L 130.00 277.00 L 131.00 278.00 L 132.00 278.00 L 133.00 279.00 L 135.00 279.00 L 136.00 280.00 L 139.00 280.00 L 140.00 281.00 L 142.00 281.00 L 143.00 282.00 L 144.00 282.00 L 144.00 281.00 L 143.00 280.00 L 143.00 278.00 L 142.00 277.00 L 142.00 275.00 L 141.00 274.00 L 141.00 271.00 L 140.00 270.00 L 139.00 270.00 L 138.00 269.00 L 136.00 269.00 L 135.00 268.00 L 134.00 268.00 L 133.00 267.00 L 131.00 267.00 L 130.00 266.00 L 129.00 266.00 L 128.00 265.00 L 127.00 265.00 L 126.00 264.00 L 125.00 264.00 L 124.00 263.00 L 123.00 263.00 L 122.00 262.00 L 121.00 262.00 L 119.00 260.00 L 118.00 260.00 L 117.00 259.00 L 116.00 259.00 L 114.00 257.00 L 113.00 257.00 L 110.00 254.00 L 109.00 254.00 L 105.00 250.00 L 104.00 250.00 L 94.00 240.00 L 94.00 239.00 L 90.00 235.00 L 90.00 234.00 L 87.00 231.00 L 87.00 230.00 L 85.00 228.00 L 85.00 227.00 L 83.00 225.00 L 83.00 224.00 L 82.00 223.00 L 82.00 222.00 L 81.00 221.00 L 81.00 220.00 L 80.00 219.00 L 80.00 218.00 L 79.00 217.00 L 79.00 216.00 L 78.00 215.00 L 78.00 214.00 L 77.00 213.00 L 77.00 212.00 L 76.00 211.00 L 76.00 209.00 L 75.00 208.00 L 75.00 207.00 L 74.00 206.00 L 72.00 206.00 L 71.00 205.00 L 69.00 205.00 L 68.00 204.00 L 67.00 204.00 L 66.00 203.00 L 64.00 203.00 Z M 845.00 142.00 L 844.00 143.00 L 843.00 142.00 L 834.00 142.00 L 834.00 143.00 L 833.00 144.00 L 833.00 147.00 L 832.00 148.00 L 832.00 150.00 L 831.00 151.00 L 831.00 153.00 L 830.00 154.00 L 830.00 156.00 L 829.00 157.00 L 829.00 159.00 L 828.00 160.00 L 828.00 162.00 L 827.00 163.00 L 827.00 165.00 L 826.00 166.00 L 826.00 168.00 L 825.00 169.00 L 824.00 169.00 L 823.00 168.00 L 823.00 166.00 L 822.00 165.00 L 822.00 163.00 L 821.00 162.00 L 821.00 160.00 L 820.00 159.00 L 820.00 157.00 L 819.00 156.00 L 819.00 154.00 L 818.00 153.00 L 818.00 151.00 L 817.00 150.00 L 817.00 148.00 L 816.00 147.00 L 816.00 145.00 L 815.00 144.00 L 815.00 142.00 L 804.00 142.00 L 804.00 143.00 L 805.00 144.00 L 805.00 146.00 L 806.00 147.00 L 806.00 148.00 L 807.00 149.00 L 807.00 151.00 L 808.00 152.00 L 808.00 154.00 L 809.00 155.00 L 809.00 157.00 L 810.00 158.00 L 810.00 159.00 L 811.00 160.00 L 811.00 162.00 L 812.00 163.00 L 812.00 164.00 L 813.00 165.00 L 813.00 167.00 L 814.00 168.00 L 814.00 170.00 L 815.00 171.00 L 815.00 172.00 L 816.00 172.00 L 817.00 173.00 L 816.00 174.00 L 816.00 175.00 L 817.00 176.00 L 817.00 177.00 L 818.00 178.00 L 818.00 179.00 L 819.00 180.00 L 819.00 185.00 L 815.00 189.00 L 813.00 189.00 L 812.00 190.00 L 811.00 190.00 L 810.00 189.00 L 808.00 189.00 L 808.00 198.00 L 819.00 198.00 L 820.00 197.00 L 821.00 197.00 L 826.00 192.00 L 826.00 191.00 L 827.00 190.00 L 827.00 189.00 L 828.00 188.00 L 828.00 186.00 L 829.00 185.00 L 829.00 183.00 L 830.00 182.00 L 830.00 181.00 L 831.00 180.00 L 831.00 178.00 L 832.00 177.00 L 832.00 175.00 L 833.00 174.00 L 833.00 173.00 L 834.00 172.00 L 834.00 170.00 L 835.00 169.00 L 835.00 167.00 L 836.00 166.00 L 836.00 164.00 L 837.00 163.00 L 837.00 162.00 L 838.00 161.00 L 838.00 159.00 L 839.00 158.00 L 839.00 156.00 L 840.00 155.00 L 840.00 154.00 L 841.00 153.00 L 841.00 151.00 L 842.00 150.00 L 842.00 148.00 L 843.00 147.00 L 843.00 145.00 L 844.00 144.00 L 844.00 143.00 Z M 825.00 169.00 L 826.00 168.00 L 827.00 169.00 L 826.00 170.00 Z M 646.00 142.00 L 635.00 142.00 L 635.00 144.00 L 634.00 145.00 L 634.00 147.00 L 633.00 148.00 L 633.00 150.00 L 632.00 151.00 L 632.00 153.00 L 631.00 154.00 L 631.00 156.00 L 630.00 157.00 L 630.00 159.00 L 629.00 160.00 L 629.00 162.00 L 628.00 163.00 L 628.00 165.00 L 627.00 166.00 L 627.00 168.00 L 626.00 169.00 L 625.00 169.00 L 624.00 168.00 L 624.00 167.00 L 623.00 166.00 L 623.00 164.00 L 622.00 163.00 L 622.00 161.00 L 621.00 160.00 L 621.00 158.00 L 620.00 157.00 L 620.00 155.00 L 619.00 154.00 L 619.00 153.00 L 618.00 152.00 L 618.00 150.00 L 617.00 149.00 L 617.00 147.00 L 616.00 146.00 L 616.00 144.00 L 615.00 143.00 L 615.00 142.00 L 603.00 142.00 L 604.00 143.00 L 604.00 144.00 L 605.00 145.00 L 605.00 146.00 L 606.00 147.00 L 606.00 149.00 L 607.00 150.00 L 607.00 152.00 L 608.00 153.00 L 608.00 154.00 L 609.00 155.00 L 609.00 156.00 L 610.00 157.00 L 610.00 159.00 L 611.00 160.00 L 611.00 161.00 L 612.00 162.00 L 612.00 164.00 L 613.00 165.00 L 613.00 166.00 L 614.00 167.00 L 614.00 169.00 L 615.00 170.00 L 615.00 171.00 L 616.00 172.00 L 616.00 174.00 L 617.00 175.00 L 617.00 176.00 L 618.00 177.00 L 618.00 178.00 L 619.00 179.00 L 619.00 180.00 L 620.00 181.00 L 620.00 183.00 L 619.00 184.00 L 619.00 185.00 L 618.00 186.00 L 618.00 187.00 L 616.00 189.00 L 608.00 189.00 L 608.00 198.00 L 619.00 198.00 L 620.00 197.00 L 621.00 197.00 L 622.00 196.00 L 623.00 196.00 L 627.00 192.00 L 627.00 191.00 L 628.00 190.00 L 628.00 189.00 L 629.00 188.00 L 629.00 186.00 L 630.00 185.00 L 630.00 183.00 L 631.00 182.00 L 631.00 181.00 L 632.00 180.00 L 632.00 178.00 L 633.00 177.00 L 633.00 176.00 L 634.00 175.00 L 634.00 173.00 L 635.00 172.00 L 635.00 170.00 L 636.00 169.00 L 636.00 168.00 L 637.00 167.00 L 637.00 165.00 L 638.00 164.00 L 638.00 163.00 L 639.00 162.00 L 639.00 160.00 L 640.00 159.00 L 640.00 158.00 L 641.00 157.00 L 641.00 155.00 L 642.00 154.00 L 642.00 153.00 L 643.00 152.00 L 643.00 150.00 L 644.00 149.00 L 644.00 148.00 L 645.00 147.00 L 645.00 145.00 L 646.00 144.00 Z M 491.00 142.00 L 491.00 183.00 L 502.00 183.00 L 502.00 142.00 Z M 850.00 144.00 L 851.00 145.00 L 850.00 146.00 L 850.00 148.00 L 851.00 149.00 L 851.00 151.00 L 852.00 152.00 L 852.00 153.00 L 854.00 151.00 L 855.00 151.00 L 856.00 150.00 L 859.00 150.00 L 860.00 149.00 L 867.00 149.00 L 868.00 150.00 L 869.00 150.00 L 872.00 153.00 L 872.00 157.00 L 871.00 158.00 L 860.00 158.00 L 859.00 159.00 L 855.00 159.00 L 854.00 160.00 L 853.00 160.00 L 852.00 161.00 L 851.00 161.00 L 848.00 164.00 L 848.00 165.00 L 847.00 166.00 L 847.00 167.00 L 846.00 168.00 L 846.00 174.00 L 847.00 175.00 L 847.00 177.00 L 848.00 178.00 L 848.00 179.00 L 851.00 182.00 L 852.00 182.00 L 853.00 183.00 L 856.00 183.00 L 857.00 184.00 L 862.00 184.00 L 863.00 183.00 L 866.00 183.00 L 867.00 182.00 L 868.00 182.00 L 872.00 178.00 L 873.00 179.00 L 873.00 183.00 L 882.00 183.00 L 882.00 151.00 L 881.00 150.00 L 881.00 149.00 L 880.00 148.00 L 880.00 147.00 L 876.00 143.00 L 875.00 143.00 L 874.00 142.00 L 872.00 142.00 L 871.00 141.00 L 858.00 141.00 L 857.00 142.00 L 855.00 142.00 L 854.00 143.00 L 852.00 143.00 L 851.00 144.00 Z M 856.00 169.00 L 860.00 165.00 L 862.00 165.00 L 863.00 164.00 L 871.00 164.00 L 872.00 165.00 L 872.00 171.00 L 867.00 176.00 L 860.00 176.00 L 859.00 175.00 L 858.00 175.00 L 857.00 174.00 L 857.00 173.00 L 856.00 172.00 Z M 762.00 142.00 L 762.00 143.00 L 763.00 144.00 L 762.00 145.00 L 762.00 146.00 L 763.00 147.00 L 763.00 150.00 L 762.00 151.00 L 762.00 182.00 L 763.00 183.00 L 772.00 183.00 L 773.00 182.00 L 773.00 155.00 L 774.00 154.00 L 774.00 153.00 L 775.00 152.00 L 776.00 152.00 L 778.00 150.00 L 781.00 150.00 L 782.00 149.00 L 783.00 150.00 L 786.00 150.00 L 789.00 153.00 L 789.00 154.00 L 790.00 155.00 L 790.00 183.00 L 800.00 183.00 L 799.00 182.00 L 800.00 181.00 L 800.00 152.00 L 799.00 151.00 L 799.00 149.00 L 798.00 148.00 L 798.00 147.00 L 796.00 145.00 L 796.00 144.00 L 795.00 144.00 L 793.00 142.00 L 791.00 142.00 L 790.00 141.00 L 781.00 141.00 L 780.00 142.00 L 778.00 142.00 L 776.00 144.00 L 775.00 144.00 L 773.00 146.00 L 772.00 145.00 L 772.00 142.00 L 764.00 142.00 L 763.00 143.00 Z M 771.00 182.00 L 772.00 181.00 L 773.00 182.00 L 772.00 183.00 Z M 762.00 182.00 L 763.00 181.00 L 764.00 182.00 L 763.00 183.00 Z M 726.00 143.00 L 723.00 146.00 L 722.00 146.00 L 721.00 147.00 L 721.00 148.00 L 719.00 150.00 L 719.00 151.00 L 718.00 152.00 L 718.00 154.00 L 717.00 155.00 L 717.00 158.00 L 716.00 159.00 L 716.00 165.00 L 717.00 166.00 L 717.00 170.00 L 718.00 171.00 L 718.00 172.00 L 719.00 173.00 L 719.00 174.00 L 720.00 175.00 L 720.00 176.00 L 724.00 180.00 L 725.00 180.00 L 726.00 181.00 L 727.00 181.00 L 728.00 182.00 L 729.00 182.00 L 730.00 183.00 L 733.00 183.00 L 734.00 184.00 L 741.00 184.00 L 742.00 183.00 L 746.00 183.00 L 747.00 182.00 L 749.00 182.00 L 750.00 181.00 L 751.00 181.00 L 753.00 179.00 L 754.00 179.00 L 754.00 178.00 L 753.00 177.00 L 753.00 176.00 L 752.00 175.00 L 752.00 173.00 L 751.00 172.00 L 750.00 172.00 L 749.00 173.00 L 748.00 173.00 L 747.00 174.00 L 745.00 174.00 L 744.00 175.00 L 734.00 175.00 L 733.00 174.00 L 732.00 174.00 L 728.00 170.00 L 728.00 169.00 L 727.00 168.00 L 727.00 166.00 L 728.00 165.00 L 755.00 165.00 L 755.00 155.00 L 754.00 154.00 L 754.00 152.00 L 753.00 151.00 L 753.00 149.00 L 747.00 143.00 L 746.00 143.00 L 745.00 142.00 L 743.00 142.00 L 742.00 141.00 L 731.00 141.00 L 730.00 142.00 L 728.00 142.00 L 727.00 143.00 Z M 727.00 158.00 L 727.00 156.00 L 728.00 155.00 L 728.00 153.00 L 731.00 150.00 L 732.00 150.00 L 733.00 149.00 L 734.00 149.00 L 735.00 148.00 L 738.00 148.00 L 739.00 149.00 L 740.00 149.00 L 741.00 150.00 L 742.00 150.00 L 744.00 152.00 L 744.00 153.00 L 745.00 154.00 L 745.00 156.00 L 746.00 157.00 L 744.00 159.00 L 730.00 159.00 L 729.00 158.00 L 728.00 159.00 Z M 566.00 144.00 L 565.00 145.00 L 565.00 147.00 L 566.00 148.00 L 566.00 151.00 L 567.00 152.00 L 567.00 153.00 L 568.00 152.00 L 569.00 152.00 L 570.00 151.00 L 571.00 151.00 L 572.00 150.00 L 574.00 150.00 L 575.00 149.00 L 583.00 149.00 L 584.00 150.00 L 585.00 150.00 L 587.00 152.00 L 587.00 153.00 L 588.00 154.00 L 588.00 157.00 L 587.00 158.00 L 576.00 158.00 L 575.00 159.00 L 571.00 159.00 L 570.00 160.00 L 569.00 160.00 L 568.00 161.00 L 567.00 161.00 L 563.00 165.00 L 563.00 166.00 L 562.00 167.00 L 562.00 176.00 L 563.00 177.00 L 563.00 178.00 L 567.00 182.00 L 568.00 182.00 L 569.00 183.00 L 571.00 183.00 L 572.00 184.00 L 578.00 184.00 L 579.00 183.00 L 582.00 183.00 L 583.00 182.00 L 584.00 182.00 L 588.00 178.00 L 589.00 179.00 L 589.00 183.00 L 598.00 183.00 L 598.00 151.00 L 597.00 150.00 L 597.00 149.00 L 596.00 148.00 L 596.00 147.00 L 592.00 143.00 L 591.00 143.00 L 590.00 142.00 L 588.00 142.00 L 587.00 141.00 L 573.00 141.00 L 572.00 142.00 L 570.00 142.00 L 569.00 143.00 L 568.00 143.00 L 567.00 144.00 Z M 572.00 173.00 L 572.00 169.00 L 573.00 168.00 L 573.00 167.00 L 574.00 166.00 L 575.00 166.00 L 576.00 165.00 L 577.00 165.00 L 578.00 164.00 L 587.00 164.00 L 588.00 165.00 L 588.00 171.00 L 583.00 176.00 L 575.00 176.00 Z M 433.00 141.00 L 432.00 142.00 L 430.00 142.00 L 429.00 143.00 L 428.00 143.00 L 427.00 144.00 L 426.00 144.00 L 421.00 149.00 L 421.00 150.00 L 419.00 152.00 L 419.00 154.00 L 418.00 155.00 L 418.00 158.00 L 417.00 159.00 L 417.00 165.00 L 418.00 166.00 L 418.00 169.00 L 419.00 170.00 L 419.00 172.00 L 420.00 173.00 L 420.00 174.00 L 422.00 176.00 L 422.00 177.00 L 424.00 179.00 L 425.00 179.00 L 427.00 181.00 L 428.00 181.00 L 429.00 182.00 L 431.00 182.00 L 432.00 183.00 L 434.00 183.00 L 435.00 184.00 L 443.00 184.00 L 444.00 183.00 L 446.00 183.00 L 447.00 182.00 L 449.00 182.00 L 450.00 181.00 L 451.00 181.00 L 453.00 179.00 L 454.00 179.00 L 457.00 176.00 L 457.00 175.00 L 458.00 174.00 L 458.00 173.00 L 459.00 172.00 L 459.00 171.00 L 460.00 170.00 L 460.00 168.00 L 461.00 167.00 L 461.00 158.00 L 460.00 157.00 L 460.00 154.00 L 459.00 153.00 L 459.00 152.00 L 458.00 151.00 L 458.00 150.00 L 455.00 147.00 L 455.00 146.00 L 454.00 146.00 L 451.00 143.00 L 450.00 143.00 L 449.00 142.00 L 447.00 142.00 L 446.00 141.00 Z M 422.00 177.00 L 423.00 176.00 L 424.00 177.00 L 423.00 178.00 Z M 437.00 149.00 L 441.00 149.00 L 442.00 150.00 L 444.00 150.00 L 449.00 155.00 L 449.00 156.00 L 450.00 157.00 L 450.00 161.00 L 451.00 162.00 L 451.00 163.00 L 450.00 164.00 L 450.00 168.00 L 448.00 170.00 L 448.00 171.00 L 446.00 173.00 L 445.00 173.00 L 444.00 174.00 L 443.00 174.00 L 442.00 175.00 L 436.00 175.00 L 435.00 174.00 L 434.00 174.00 L 429.00 169.00 L 429.00 167.00 L 428.00 166.00 L 428.00 158.00 L 429.00 157.00 L 429.00 156.00 L 430.00 155.00 L 430.00 154.00 L 434.00 150.00 L 436.00 150.00 Z M 227.00 139.00 L 226.00 140.00 L 222.00 140.00 L 221.00 141.00 L 220.00 141.00 L 219.00 142.00 L 218.00 142.00 L 217.00 143.00 L 216.00 143.00 L 214.00 145.00 L 213.00 145.00 L 211.00 147.00 L 211.00 148.00 L 209.00 150.00 L 209.00 151.00 L 208.00 152.00 L 208.00 155.00 L 207.00 156.00 L 207.00 164.00 L 208.00 165.00 L 208.00 167.00 L 210.00 169.00 L 210.00 170.00 L 214.00 174.00 L 215.00 174.00 L 217.00 176.00 L 218.00 176.00 L 219.00 177.00 L 221.00 177.00 L 222.00 178.00 L 224.00 178.00 L 225.00 179.00 L 228.00 179.00 L 229.00 180.00 L 232.00 180.00 L 233.00 181.00 L 236.00 181.00 L 237.00 182.00 L 239.00 182.00 L 244.00 187.00 L 244.00 192.00 L 243.00 193.00 L 243.00 194.00 L 241.00 196.00 L 240.00 196.00 L 239.00 197.00 L 237.00 197.00 L 236.00 198.00 L 227.00 198.00 L 226.00 197.00 L 222.00 197.00 L 221.00 196.00 L 219.00 196.00 L 218.00 195.00 L 216.00 195.00 L 215.00 194.00 L 214.00 194.00 L 213.00 193.00 L 212.00 194.00 L 212.00 196.00 L 211.00 197.00 L 211.00 199.00 L 210.00 200.00 L 210.00 202.00 L 209.00 203.00 L 209.00 204.00 L 210.00 205.00 L 211.00 205.00 L 212.00 206.00 L 213.00 206.00 L 214.00 207.00 L 216.00 207.00 L 217.00 208.00 L 220.00 208.00 L 221.00 209.00 L 226.00 209.00 L 227.00 210.00 L 237.00 210.00 L 238.00 209.00 L 242.00 209.00 L 243.00 208.00 L 245.00 208.00 L 246.00 207.00 L 247.00 207.00 L 248.00 206.00 L 249.00 206.00 L 255.00 200.00 L 255.00 199.00 L 256.00 198.00 L 256.00 196.00 L 257.00 195.00 L 257.00 192.00 L 258.00 191.00 L 258.00 187.00 L 257.00 186.00 L 257.00 182.00 L 256.00 181.00 L 256.00 180.00 L 255.00 179.00 L 255.00 178.00 L 250.00 173.00 L 249.00 173.00 L 248.00 172.00 L 247.00 172.00 L 246.00 171.00 L 244.00 171.00 L 243.00 170.00 L 241.00 170.00 L 240.00 169.00 L 238.00 169.00 L 237.00 168.00 L 234.00 168.00 L 233.00 167.00 L 230.00 167.00 L 229.00 166.00 L 227.00 166.00 L 226.00 165.00 L 225.00 165.00 L 224.00 164.00 L 223.00 164.00 L 222.00 163.00 L 222.00 162.00 L 221.00 161.00 L 221.00 156.00 L 225.00 152.00 L 227.00 152.00 L 228.00 151.00 L 239.00 151.00 L 240.00 152.00 L 243.00 152.00 L 244.00 153.00 L 246.00 153.00 L 247.00 154.00 L 249.00 154.00 L 250.00 155.00 L 250.00 153.00 L 251.00 152.00 L 251.00 151.00 L 252.00 150.00 L 252.00 148.00 L 253.00 147.00 L 253.00 145.00 L 254.00 144.00 L 253.00 143.00 L 252.00 143.00 L 251.00 142.00 L 249.00 142.00 L 248.00 141.00 L 245.00 141.00 L 244.00 140.00 L 240.00 140.00 L 239.00 139.00 Z M 252.00 144.00 L 253.00 143.00 L 254.00 144.00 L 253.00 145.00 Z M 670.00 125.00 L 670.00 181.00 L 671.00 182.00 L 670.00 183.00 L 681.00 183.00 L 681.00 159.00 L 682.00 158.00 L 683.00 158.00 L 688.00 163.00 L 688.00 164.00 L 692.00 168.00 L 692.00 169.00 L 696.00 173.00 L 696.00 174.00 L 700.00 178.00 L 700.00 179.00 L 704.00 183.00 L 717.00 183.00 L 717.00 182.00 L 714.00 179.00 L 714.00 178.00 L 710.00 174.00 L 710.00 173.00 L 706.00 169.00 L 706.00 168.00 L 702.00 164.00 L 702.00 163.00 L 698.00 159.00 L 698.00 158.00 L 694.00 154.00 L 694.00 152.00 L 696.00 150.00 L 696.00 149.00 L 700.00 145.00 L 700.00 144.00 L 705.00 139.00 L 705.00 138.00 L 709.00 134.00 L 709.00 133.00 L 713.00 129.00 L 713.00 128.00 L 715.00 126.00 L 715.00 125.00 L 703.00 125.00 L 701.00 127.00 L 701.00 128.00 L 697.00 132.00 L 697.00 133.00 L 693.00 137.00 L 693.00 138.00 L 689.00 142.00 L 689.00 143.00 L 685.00 147.00 L 685.00 148.00 L 682.00 151.00 L 681.00 150.00 L 681.00 126.00 L 680.00 125.00 Z M 689.00 142.00 L 690.00 141.00 L 691.00 142.00 L 690.00 143.00 Z M 679.00 126.00 L 680.00 125.00 L 681.00 126.00 L 680.00 127.00 Z M 553.00 125.00 L 543.00 125.00 L 544.00 126.00 L 543.00 127.00 L 543.00 143.00 L 544.00 144.00 L 542.00 146.00 L 539.00 143.00 L 538.00 143.00 L 537.00 142.00 L 535.00 142.00 L 534.00 141.00 L 524.00 141.00 L 523.00 142.00 L 521.00 142.00 L 520.00 143.00 L 519.00 143.00 L 513.00 149.00 L 513.00 150.00 L 512.00 151.00 L 512.00 152.00 L 511.00 153.00 L 511.00 155.00 L 510.00 156.00 L 510.00 169.00 L 511.00 170.00 L 511.00 172.00 L 512.00 173.00 L 512.00 174.00 L 513.00 175.00 L 513.00 176.00 L 518.00 181.00 L 519.00 181.00 L 520.00 182.00 L 521.00 182.00 L 522.00 183.00 L 525.00 183.00 L 526.00 184.00 L 532.00 184.00 L 533.00 183.00 L 535.00 183.00 L 536.00 182.00 L 537.00 182.00 L 538.00 181.00 L 539.00 181.00 L 542.00 178.00 L 543.00 179.00 L 543.00 183.00 L 553.00 183.00 Z M 530.00 149.00 L 533.00 149.00 L 534.00 150.00 L 536.00 150.00 L 537.00 151.00 L 538.00 151.00 L 541.00 154.00 L 541.00 155.00 L 542.00 156.00 L 542.00 158.00 L 543.00 159.00 L 543.00 166.00 L 542.00 167.00 L 542.00 169.00 L 537.00 174.00 L 536.00 174.00 L 535.00 175.00 L 529.00 175.00 L 528.00 174.00 L 526.00 174.00 L 522.00 170.00 L 522.00 169.00 L 521.00 168.00 L 521.00 165.00 L 520.00 164.00 L 520.00 160.00 L 521.00 159.00 L 521.00 156.00 L 523.00 154.00 L 523.00 153.00 L 524.00 152.00 L 525.00 152.00 L 527.00 150.00 L 529.00 150.00 Z M 469.00 125.00 L 468.00 126.00 L 469.00 127.00 L 469.00 157.00 L 468.00 158.00 L 468.00 172.00 L 469.00 173.00 L 469.00 178.00 L 470.00 179.00 L 470.00 180.00 L 472.00 182.00 L 473.00 182.00 L 474.00 183.00 L 478.00 183.00 L 479.00 184.00 L 480.00 184.00 L 481.00 183.00 L 484.00 183.00 L 484.00 177.00 L 483.00 176.00 L 484.00 175.00 L 482.00 175.00 L 479.00 172.00 L 479.00 125.00 Z M 360.00 125.00 L 361.00 126.00 L 360.00 127.00 L 360.00 181.00 L 361.00 182.00 L 360.00 183.00 L 371.00 183.00 L 371.00 160.00 L 372.00 159.00 L 397.00 159.00 L 398.00 160.00 L 398.00 183.00 L 409.00 183.00 L 410.00 182.00 L 410.00 126.00 L 409.00 125.00 L 398.00 125.00 L 398.00 148.00 L 397.00 149.00 L 372.00 149.00 L 371.00 148.00 L 371.00 125.00 Z M 408.00 151.00 L 409.00 150.00 L 410.00 151.00 L 410.00 152.00 L 409.00 153.00 L 408.00 152.00 Z M 408.00 126.00 L 409.00 125.00 L 410.00 126.00 L 409.00 127.00 Z M 495.00 124.00 L 494.00 125.00 L 493.00 125.00 L 491.00 127.00 L 491.00 133.00 L 493.00 135.00 L 494.00 135.00 L 495.00 136.00 L 498.00 136.00 L 499.00 135.00 L 500.00 135.00 L 501.00 134.00 L 501.00 133.00 L 502.00 132.00 L 502.00 127.00 L 500.00 125.00 L 498.00 125.00 L 497.00 124.00 Z M 138.00 97.00 L 137.00 98.00 L 136.00 98.00 L 135.00 99.00 L 133.00 99.00 L 132.00 100.00 L 131.00 100.00 L 130.00 101.00 L 129.00 101.00 L 127.00 103.00 L 126.00 103.00 L 125.00 104.00 L 125.00 165.00 L 126.00 166.00 L 125.00 167.00 L 98.00 167.00 L 97.00 166.00 L 97.00 139.00 L 96.00 139.00 L 95.00 140.00 L 94.00 140.00 L 93.00 141.00 L 91.00 141.00 L 90.00 142.00 L 89.00 142.00 L 88.00 143.00 L 86.00 143.00 L 85.00 144.00 L 84.00 144.00 L 84.00 204.00 L 85.00 205.00 L 87.00 205.00 L 88.00 206.00 L 90.00 206.00 L 91.00 207.00 L 93.00 207.00 L 94.00 208.00 L 96.00 208.00 L 97.00 209.00 L 97.00 181.00 L 98.00 180.00 L 124.00 180.00 L 125.00 181.00 L 125.00 246.00 L 126.00 247.00 L 127.00 247.00 L 129.00 249.00 L 130.00 249.00 L 131.00 250.00 L 132.00 250.00 L 133.00 251.00 L 134.00 251.00 L 135.00 252.00 L 136.00 252.00 L 137.00 253.00 L 138.00 253.00 Z M 163.00 90.00 L 162.00 90.00 L 161.00 91.00 L 157.00 91.00 L 156.00 92.00 L 153.00 92.00 L 152.00 93.00 L 150.00 93.00 L 150.00 169.00 L 149.00 170.00 L 150.00 169.00 L 150.00 168.00 L 153.00 165.00 L 154.00 165.00 L 155.00 164.00 L 160.00 164.00 L 161.00 165.00 L 162.00 165.00 L 167.00 170.00 L 167.00 172.00 L 166.00 173.00 L 167.00 174.00 L 167.00 178.00 L 166.00 179.00 L 166.00 180.00 L 163.00 183.00 L 162.00 183.00 L 161.00 184.00 L 154.00 184.00 L 153.00 183.00 L 152.00 183.00 L 150.00 181.00 L 150.00 257.00 L 153.00 257.00 L 154.00 258.00 L 158.00 258.00 L 159.00 259.00 L 164.00 259.00 L 164.00 185.00 L 165.00 184.00 L 166.00 184.00 L 167.00 183.00 L 168.00 183.00 L 172.00 187.00 L 172.00 188.00 L 175.00 191.00 L 175.00 192.00 L 178.00 195.00 L 178.00 196.00 L 181.00 199.00 L 181.00 200.00 L 185.00 204.00 L 185.00 205.00 L 188.00 208.00 L 188.00 209.00 L 191.00 212.00 L 191.00 213.00 L 194.00 216.00 L 194.00 217.00 L 198.00 221.00 L 198.00 222.00 L 201.00 225.00 L 201.00 226.00 L 204.00 229.00 L 204.00 230.00 L 207.00 233.00 L 207.00 234.00 L 210.00 237.00 L 210.00 238.00 L 212.00 240.00 L 212.00 241.00 L 215.00 244.00 L 215.00 245.00 L 217.00 247.00 L 218.00 247.00 L 219.00 246.00 L 220.00 246.00 L 223.00 243.00 L 224.00 243.00 L 227.00 240.00 L 228.00 240.00 L 229.00 239.00 L 227.00 237.00 L 227.00 236.00 L 224.00 233.00 L 224.00 232.00 L 221.00 229.00 L 221.00 228.00 L 218.00 225.00 L 218.00 224.00 L 214.00 220.00 L 214.00 219.00 L 211.00 216.00 L 211.00 215.00 L 208.00 212.00 L 208.00 211.00 L 205.00 208.00 L 205.00 207.00 L 202.00 204.00 L 202.00 203.00 L 199.00 200.00 L 199.00 199.00 L 195.00 195.00 L 195.00 194.00 L 193.00 192.00 L 193.00 191.00 L 189.00 187.00 L 189.00 186.00 L 186.00 183.00 L 186.00 182.00 L 184.00 180.00 L 184.00 179.00 L 181.00 176.00 L 181.00 175.00 L 179.00 173.00 L 179.00 171.00 L 183.00 167.00 L 183.00 166.00 L 187.00 162.00 L 187.00 161.00 L 192.00 156.00 L 192.00 155.00 L 196.00 151.00 L 196.00 150.00 L 201.00 145.00 L 201.00 144.00 L 205.00 140.00 L 205.00 139.00 L 210.00 134.00 L 210.00 133.00 L 215.00 128.00 L 215.00 127.00 L 220.00 122.00 L 220.00 121.00 L 225.00 116.00 L 225.00 115.00 L 229.00 111.00 L 227.00 109.00 L 226.00 109.00 L 223.00 106.00 L 222.00 106.00 L 219.00 103.00 L 218.00 103.00 L 217.00 102.00 L 217.00 103.00 L 212.00 108.00 L 212.00 109.00 L 208.00 113.00 L 208.00 114.00 L 203.00 119.00 L 203.00 120.00 L 199.00 124.00 L 199.00 125.00 L 195.00 129.00 L 195.00 130.00 L 190.00 135.00 L 190.00 136.00 L 186.00 140.00 L 186.00 141.00 L 182.00 145.00 L 182.00 146.00 L 178.00 150.00 L 178.00 151.00 L 173.00 156.00 L 173.00 157.00 L 169.00 161.00 L 169.00 162.00 L 167.00 164.00 L 165.00 164.00 L 164.00 163.00 L 164.00 91.00 Z M 200.00 66.00 L 201.00 67.00 L 201.00 70.00 L 202.00 71.00 L 202.00 73.00 L 203.00 74.00 L 203.00 76.00 L 204.00 77.00 L 204.00 78.00 L 205.00 78.00 L 206.00 79.00 L 207.00 79.00 L 208.00 80.00 L 210.00 80.00 L 211.00 81.00 L 212.00 81.00 L 213.00 82.00 L 214.00 82.00 L 215.00 83.00 L 216.00 83.00 L 217.00 84.00 L 218.00 84.00 L 219.00 85.00 L 220.00 85.00 L 221.00 86.00 L 222.00 86.00 L 224.00 88.00 L 225.00 88.00 L 226.00 89.00 L 227.00 89.00 L 230.00 92.00 L 231.00 92.00 L 234.00 95.00 L 235.00 95.00 L 250.00 110.00 L 250.00 111.00 L 254.00 115.00 L 254.00 116.00 L 256.00 118.00 L 256.00 119.00 L 258.00 121.00 L 258.00 122.00 L 260.00 124.00 L 260.00 125.00 L 261.00 126.00 L 261.00 127.00 L 262.00 128.00 L 262.00 129.00 L 263.00 130.00 L 263.00 131.00 L 264.00 132.00 L 264.00 133.00 L 265.00 134.00 L 265.00 136.00 L 266.00 137.00 L 266.00 138.00 L 267.00 139.00 L 268.00 139.00 L 269.00 140.00 L 271.00 140.00 L 272.00 141.00 L 275.00 141.00 L 276.00 142.00 L 278.00 142.00 L 279.00 143.00 L 279.00 142.00 L 278.00 141.00 L 278.00 139.00 L 277.00 138.00 L 277.00 136.00 L 276.00 135.00 L 276.00 133.00 L 275.00 132.00 L 275.00 131.00 L 274.00 130.00 L 274.00 128.00 L 273.00 127.00 L 273.00 126.00 L 272.00 125.00 L 272.00 124.00 L 271.00 123.00 L 271.00 122.00 L 270.00 121.00 L 270.00 120.00 L 268.00 118.00 L 268.00 117.00 L 267.00 116.00 L 267.00 115.00 L 265.00 113.00 L 265.00 112.00 L 263.00 110.00 L 263.00 109.00 L 260.00 106.00 L 260.00 105.00 L 254.00 99.00 L 254.00 98.00 L 248.00 92.00 L 247.00 92.00 L 241.00 86.00 L 240.00 86.00 L 237.00 83.00 L 236.00 83.00 L 234.00 81.00 L 233.00 81.00 L 231.00 79.00 L 230.00 79.00 L 228.00 77.00 L 227.00 77.00 L 226.00 76.00 L 225.00 76.00 L 224.00 75.00 L 223.00 75.00 L 222.00 74.00 L 221.00 74.00 L 220.00 73.00 L 219.00 73.00 L 218.00 72.00 L 217.00 72.00 L 216.00 71.00 L 215.00 71.00 L 214.00 70.00 L 212.00 70.00 L 211.00 69.00 L 209.00 69.00 L 208.00 68.00 L 206.00 68.00 L 205.00 67.00 L 203.00 67.00 L 202.00 66.00 Z M 144.00 66.00 L 142.00 66.00 L 141.00 67.00 L 139.00 67.00 L 138.00 68.00 L 135.00 68.00 L 134.00 69.00 L 132.00 69.00 L 131.00 70.00 L 130.00 70.00 L 129.00 71.00 L 127.00 71.00 L 126.00 72.00 L 125.00 72.00 L 124.00 73.00 L 123.00 73.00 L 122.00 74.00 L 121.00 74.00 L 120.00 75.00 L 119.00 75.00 L 118.00 76.00 L 117.00 76.00 L 115.00 78.00 L 114.00 78.00 L 113.00 79.00 L 112.00 79.00 L 110.00 81.00 L 109.00 81.00 L 107.00 83.00 L 106.00 83.00 L 104.00 85.00 L 103.00 85.00 L 99.00 89.00 L 98.00 89.00 L 85.00 102.00 L 85.00 103.00 L 81.00 107.00 L 81.00 108.00 L 79.00 110.00 L 79.00 111.00 L 77.00 113.00 L 77.00 114.00 L 75.00 116.00 L 75.00 117.00 L 73.00 119.00 L 73.00 120.00 L 72.00 121.00 L 72.00 122.00 L 71.00 123.00 L 71.00 124.00 L 70.00 125.00 L 70.00 126.00 L 69.00 127.00 L 69.00 128.00 L 68.00 129.00 L 68.00 130.00 L 67.00 131.00 L 67.00 133.00 L 66.00 134.00 L 66.00 135.00 L 65.00 136.00 L 65.00 138.00 L 64.00 139.00 L 64.00 141.00 L 63.00 142.00 L 63.00 144.00 L 65.00 144.00 L 66.00 143.00 L 67.00 143.00 L 68.00 142.00 L 70.00 142.00 L 71.00 141.00 L 73.00 141.00 L 74.00 140.00 L 75.00 140.00 L 76.00 139.00 L 76.00 137.00 L 77.00 136.00 L 77.00 135.00 L 78.00 134.00 L 78.00 133.00 L 79.00 132.00 L 79.00 131.00 L 80.00 130.00 L 80.00 129.00 L 81.00 128.00 L 81.00 127.00 L 83.00 125.00 L 83.00 124.00 L 84.00 123.00 L 84.00 122.00 L 86.00 120.00 L 86.00 119.00 L 88.00 117.00 L 88.00 116.00 L 91.00 113.00 L 91.00 112.00 L 108.00 95.00 L 109.00 95.00 L 111.00 93.00 L 112.00 93.00 L 115.00 90.00 L 116.00 90.00 L 118.00 88.00 L 119.00 88.00 L 120.00 87.00 L 121.00 87.00 L 123.00 85.00 L 124.00 85.00 L 125.00 84.00 L 126.00 84.00 L 127.00 83.00 L 128.00 83.00 L 129.00 82.00 L 130.00 82.00 L 131.00 81.00 L 133.00 81.00 L 134.00 80.00 L 135.00 80.00 L 136.00 79.00 L 138.00 79.00 L 139.00 78.00 L 140.00 78.00 L 140.00 77.00 L 141.00 76.00 L 141.00 74.00 L 142.00 73.00 L 142.00 71.00 L 143.00 70.00 L 143.00 68.00 L 144.00 67.00 Z"/>
    <path fill="#2C7A78" d="M 190.00 273.00 L 189.00 274.00 L 184.00 274.00 L 183.00 275.00 L 162.00 275.00 L 161.00 274.00 L 156.00 274.00 L 155.00 275.00 L 155.00 276.00 L 156.00 277.00 L 156.00 279.00 L 157.00 280.00 L 157.00 282.00 L 158.00 283.00 L 158.00 285.00 L 159.00 286.00 L 159.00 288.00 L 160.00 289.00 L 160.00 292.00 L 161.00 293.00 L 161.00 295.00 L 162.00 296.00 L 162.00 298.00 L 163.00 299.00 L 163.00 301.00 L 164.00 302.00 L 164.00 305.00 L 165.00 306.00 L 165.00 308.00 L 166.00 309.00 L 166.00 311.00 L 167.00 312.00 L 167.00 314.00 L 168.00 315.00 L 168.00 317.00 L 169.00 318.00 L 169.00 320.00 L 170.00 321.00 L 170.00 323.00 L 171.00 324.00 L 171.00 326.00 L 172.00 327.00 L 172.00 329.00 L 173.00 328.00 L 173.00 326.00 L 174.00 325.00 L 174.00 323.00 L 175.00 322.00 L 175.00 320.00 L 176.00 319.00 L 176.00 317.00 L 177.00 316.00 L 177.00 313.00 L 178.00 312.00 L 178.00 310.00 L 179.00 309.00 L 179.00 307.00 L 180.00 306.00 L 180.00 304.00 L 181.00 303.00 L 181.00 301.00 L 182.00 300.00 L 182.00 297.00 L 183.00 296.00 L 183.00 294.00 L 184.00 293.00 L 184.00 291.00 L 185.00 290.00 L 185.00 288.00 L 186.00 287.00 L 186.00 285.00 L 187.00 284.00 L 187.00 282.00 L 188.00 281.00 L 188.00 279.00 L 189.00 278.00 L 189.00 276.00 L 190.00 275.00 Z M 577.00 220.00 L 577.00 263.00 L 588.00 263.00 L 588.00 220.00 Z M 609.00 219.00 L 608.00 220.00 L 607.00 220.00 L 606.00 221.00 L 605.00 221.00 L 600.00 226.00 L 600.00 228.00 L 599.00 229.00 L 599.00 236.00 L 600.00 237.00 L 600.00 238.00 L 604.00 242.00 L 605.00 242.00 L 606.00 243.00 L 608.00 243.00 L 609.00 244.00 L 611.00 244.00 L 612.00 245.00 L 614.00 245.00 L 615.00 246.00 L 618.00 246.00 L 619.00 247.00 L 620.00 247.00 L 621.00 248.00 L 621.00 249.00 L 622.00 250.00 L 622.00 252.00 L 619.00 255.00 L 617.00 255.00 L 616.00 256.00 L 612.00 256.00 L 611.00 255.00 L 608.00 255.00 L 607.00 254.00 L 606.00 254.00 L 605.00 253.00 L 604.00 253.00 L 602.00 251.00 L 601.00 251.00 L 601.00 253.00 L 600.00 254.00 L 600.00 255.00 L 599.00 256.00 L 599.00 257.00 L 598.00 258.00 L 598.00 260.00 L 599.00 260.00 L 600.00 261.00 L 601.00 261.00 L 602.00 262.00 L 603.00 262.00 L 604.00 263.00 L 607.00 263.00 L 608.00 264.00 L 621.00 264.00 L 622.00 263.00 L 624.00 263.00 L 625.00 262.00 L 626.00 262.00 L 631.00 257.00 L 631.00 256.00 L 632.00 255.00 L 632.00 246.00 L 631.00 245.00 L 631.00 244.00 L 627.00 240.00 L 626.00 240.00 L 625.00 239.00 L 624.00 239.00 L 623.00 238.00 L 621.00 238.00 L 620.00 237.00 L 618.00 237.00 L 617.00 236.00 L 614.00 236.00 L 613.00 235.00 L 612.00 235.00 L 610.00 233.00 L 610.00 232.00 L 609.00 231.00 L 613.00 227.00 L 620.00 227.00 L 621.00 228.00 L 623.00 228.00 L 624.00 229.00 L 626.00 229.00 L 627.00 230.00 L 628.00 230.00 L 628.00 229.00 L 629.00 228.00 L 629.00 226.00 L 630.00 225.00 L 630.00 224.00 L 631.00 223.00 L 631.00 222.00 L 630.00 222.00 L 629.00 221.00 L 628.00 221.00 L 627.00 220.00 L 625.00 220.00 L 624.00 219.00 Z M 568.00 219.00 L 561.00 219.00 L 560.00 220.00 L 558.00 220.00 L 556.00 222.00 L 555.00 222.00 L 554.00 223.00 L 554.00 224.00 L 552.00 226.00 L 551.00 225.00 L 551.00 220.00 L 541.00 220.00 L 541.00 263.00 L 552.00 263.00 L 552.00 236.00 L 553.00 235.00 L 553.00 234.00 L 556.00 231.00 L 557.00 231.00 L 558.00 230.00 L 559.00 230.00 L 560.00 229.00 L 568.00 229.00 Z M 414.00 222.00 L 413.00 223.00 L 414.00 224.00 L 414.00 227.00 L 415.00 228.00 L 415.00 230.00 L 416.00 231.00 L 417.00 230.00 L 418.00 230.00 L 419.00 229.00 L 421.00 229.00 L 422.00 228.00 L 424.00 228.00 L 425.00 227.00 L 432.00 227.00 L 433.00 228.00 L 434.00 228.00 L 437.00 231.00 L 437.00 232.00 L 438.00 233.00 L 438.00 236.00 L 437.00 237.00 L 422.00 237.00 L 421.00 238.00 L 419.00 238.00 L 418.00 239.00 L 416.00 239.00 L 412.00 243.00 L 412.00 244.00 L 411.00 245.00 L 411.00 247.00 L 410.00 248.00 L 410.00 254.00 L 411.00 255.00 L 411.00 257.00 L 412.00 258.00 L 413.00 258.00 L 414.00 259.00 L 413.00 260.00 L 414.00 261.00 L 415.00 261.00 L 417.00 263.00 L 419.00 263.00 L 420.00 264.00 L 429.00 264.00 L 430.00 263.00 L 432.00 263.00 L 433.00 262.00 L 434.00 262.00 L 437.00 259.00 L 438.00 259.00 L 439.00 260.00 L 439.00 263.00 L 449.00 263.00 L 449.00 232.00 L 448.00 231.00 L 448.00 228.00 L 447.00 227.00 L 447.00 226.00 L 442.00 221.00 L 441.00 221.00 L 440.00 220.00 L 439.00 220.00 L 438.00 219.00 L 422.00 219.00 L 421.00 220.00 L 419.00 220.00 L 418.00 221.00 L 416.00 221.00 L 415.00 222.00 Z M 437.00 243.00 L 438.00 244.00 L 438.00 250.00 L 437.00 251.00 L 437.00 252.00 L 435.00 254.00 L 434.00 254.00 L 433.00 255.00 L 432.00 255.00 L 431.00 256.00 L 425.00 256.00 L 421.00 252.00 L 421.00 248.00 L 425.00 244.00 L 428.00 244.00 L 429.00 243.00 Z M 415.00 240.00 L 416.00 239.00 L 417.00 240.00 L 416.00 241.00 Z M 495.00 222.00 L 494.00 223.00 L 495.00 224.00 L 495.00 227.00 L 496.00 228.00 L 496.00 230.00 L 497.00 231.00 L 498.00 230.00 L 499.00 230.00 L 500.00 229.00 L 501.00 229.00 L 502.00 228.00 L 505.00 228.00 L 506.00 227.00 L 512.00 227.00 L 513.00 228.00 L 515.00 228.00 L 518.00 231.00 L 518.00 234.00 L 519.00 235.00 L 517.00 237.00 L 502.00 237.00 L 501.00 238.00 L 499.00 238.00 L 498.00 239.00 L 497.00 239.00 L 492.00 244.00 L 492.00 245.00 L 491.00 246.00 L 491.00 255.00 L 492.00 256.00 L 492.00 257.00 L 493.00 258.00 L 493.00 259.00 L 496.00 262.00 L 497.00 262.00 L 498.00 263.00 L 500.00 263.00 L 501.00 264.00 L 510.00 264.00 L 511.00 263.00 L 513.00 263.00 L 514.00 262.00 L 515.00 262.00 L 518.00 259.00 L 519.00 259.00 L 520.00 260.00 L 519.00 261.00 L 520.00 262.00 L 520.00 263.00 L 529.00 263.00 L 529.00 230.00 L 528.00 229.00 L 528.00 227.00 L 527.00 226.00 L 527.00 225.00 L 523.00 221.00 L 522.00 221.00 L 521.00 220.00 L 519.00 220.00 L 518.00 219.00 L 513.00 219.00 L 512.00 218.00 L 509.00 218.00 L 508.00 219.00 L 502.00 219.00 L 501.00 220.00 L 499.00 220.00 L 498.00 221.00 L 497.00 221.00 L 496.00 222.00 Z M 514.00 261.00 L 515.00 260.00 L 516.00 261.00 L 515.00 262.00 Z M 517.00 243.00 L 519.00 245.00 L 519.00 249.00 L 518.00 250.00 L 518.00 251.00 L 514.00 255.00 L 513.00 255.00 L 512.00 256.00 L 506.00 256.00 L 505.00 255.00 L 504.00 255.00 L 502.00 253.00 L 502.00 251.00 L 501.00 250.00 L 502.00 249.00 L 502.00 247.00 L 504.00 245.00 L 505.00 245.00 L 506.00 244.00 L 508.00 244.00 L 509.00 243.00 Z M 525.00 225.00 L 526.00 224.00 L 527.00 225.00 L 526.00 226.00 Z M 578.00 203.00 L 578.00 204.00 L 577.00 205.00 L 577.00 206.00 L 576.00 207.00 L 576.00 209.00 L 577.00 210.00 L 577.00 211.00 L 579.00 213.00 L 581.00 213.00 L 582.00 214.00 L 583.00 214.00 L 584.00 213.00 L 586.00 213.00 L 588.00 211.00 L 588.00 210.00 L 589.00 209.00 L 589.00 207.00 L 588.00 206.00 L 588.00 204.00 L 587.00 203.00 L 586.00 203.00 L 585.00 202.00 L 580.00 202.00 L 579.00 203.00 Z M 375.00 202.00 L 374.00 203.00 L 372.00 203.00 L 371.00 204.00 L 369.00 204.00 L 367.00 206.00 L 366.00 206.00 L 362.00 210.00 L 362.00 211.00 L 361.00 212.00 L 361.00 213.00 L 360.00 214.00 L 360.00 218.00 L 359.00 219.00 L 359.00 220.00 L 360.00 221.00 L 360.00 225.00 L 361.00 226.00 L 361.00 227.00 L 362.00 228.00 L 362.00 229.00 L 366.00 233.00 L 367.00 233.00 L 368.00 234.00 L 369.00 234.00 L 370.00 235.00 L 372.00 235.00 L 373.00 236.00 L 375.00 236.00 L 376.00 237.00 L 378.00 237.00 L 379.00 238.00 L 381.00 238.00 L 382.00 239.00 L 384.00 239.00 L 385.00 240.00 L 386.00 240.00 L 390.00 244.00 L 390.00 249.00 L 386.00 253.00 L 385.00 253.00 L 384.00 254.00 L 375.00 254.00 L 374.00 253.00 L 371.00 253.00 L 370.00 252.00 L 369.00 252.00 L 368.00 251.00 L 367.00 251.00 L 366.00 250.00 L 365.00 250.00 L 363.00 248.00 L 362.00 249.00 L 362.00 250.00 L 361.00 251.00 L 361.00 252.00 L 360.00 253.00 L 360.00 254.00 L 359.00 255.00 L 359.00 256.00 L 358.00 257.00 L 358.00 258.00 L 359.00 258.00 L 360.00 259.00 L 361.00 259.00 L 362.00 260.00 L 363.00 260.00 L 364.00 261.00 L 365.00 261.00 L 366.00 262.00 L 368.00 262.00 L 369.00 263.00 L 372.00 263.00 L 373.00 264.00 L 387.00 264.00 L 388.00 263.00 L 390.00 263.00 L 391.00 262.00 L 393.00 262.00 L 395.00 260.00 L 396.00 260.00 L 400.00 256.00 L 400.00 255.00 L 401.00 254.00 L 401.00 253.00 L 402.00 252.00 L 402.00 247.00 L 403.00 246.00 L 403.00 245.00 L 402.00 244.00 L 402.00 240.00 L 401.00 239.00 L 401.00 237.00 L 396.00 232.00 L 395.00 232.00 L 394.00 231.00 L 393.00 231.00 L 392.00 230.00 L 391.00 230.00 L 390.00 229.00 L 388.00 229.00 L 387.00 228.00 L 385.00 228.00 L 384.00 227.00 L 381.00 227.00 L 380.00 226.00 L 378.00 226.00 L 377.00 225.00 L 376.00 225.00 L 372.00 221.00 L 372.00 216.00 L 375.00 213.00 L 376.00 213.00 L 377.00 212.00 L 388.00 212.00 L 389.00 213.00 L 391.00 213.00 L 392.00 214.00 L 393.00 214.00 L 394.00 215.00 L 395.00 215.00 L 396.00 216.00 L 397.00 215.00 L 397.00 214.00 L 398.00 213.00 L 398.00 212.00 L 399.00 211.00 L 399.00 210.00 L 400.00 209.00 L 400.00 206.00 L 399.00 206.00 L 398.00 205.00 L 397.00 205.00 L 396.00 204.00 L 394.00 204.00 L 393.00 203.00 L 391.00 203.00 L 390.00 202.00 Z M 487.00 202.00 L 484.00 202.00 L 483.00 201.00 L 476.00 201.00 L 475.00 202.00 L 473.00 202.00 L 472.00 203.00 L 471.00 203.00 L 470.00 204.00 L 469.00 204.00 L 466.00 207.00 L 466.00 208.00 L 465.00 209.00 L 465.00 211.00 L 464.00 212.00 L 464.00 219.00 L 463.00 220.00 L 457.00 220.00 L 457.00 228.00 L 463.00 228.00 L 464.00 229.00 L 464.00 263.00 L 475.00 263.00 L 475.00 231.00 L 474.00 230.00 L 475.00 229.00 L 476.00 229.00 L 477.00 228.00 L 486.00 228.00 L 486.00 220.00 L 476.00 220.00 L 475.00 219.00 L 475.00 215.00 L 476.00 214.00 L 476.00 213.00 L 479.00 210.00 L 486.00 210.00 L 487.00 209.00 Z M 155.00 165.00 L 154.00 166.00 L 153.00 166.00 L 151.00 168.00 L 151.00 169.00 L 150.00 170.00 L 149.00 169.00 L 150.00 170.00 L 149.00 171.00 L 148.00 171.00 L 148.00 178.00 L 149.00 179.00 L 149.00 180.00 L 150.00 180.00 L 152.00 182.00 L 153.00 182.00 L 154.00 183.00 L 161.00 183.00 L 162.00 182.00 L 163.00 182.00 L 165.00 180.00 L 165.00 179.00 L 166.00 178.00 L 166.00 174.00 L 165.00 173.00 L 166.00 172.00 L 166.00 170.00 L 162.00 166.00 L 161.00 166.00 L 160.00 165.00 Z M 164.00 171.00 L 165.00 170.00 L 166.00 171.00 L 165.00 172.00 Z M 153.00 168.00 L 154.00 167.00 L 155.00 168.00 L 154.00 169.00 Z M 156.00 166.00 L 157.00 166.00 L 158.00 167.00 L 159.00 167.00 L 160.00 166.00 L 161.00 167.00 L 161.00 168.00 L 162.00 167.00 L 163.00 168.00 L 163.00 169.00 L 164.00 170.00 L 164.00 171.00 L 165.00 172.00 L 165.00 177.00 L 161.00 181.00 L 159.00 181.00 L 158.00 182.00 L 157.00 181.00 L 155.00 181.00 L 152.00 178.00 L 152.00 177.00 L 151.00 176.00 L 151.00 172.00 L 155.00 168.00 L 156.00 168.00 L 155.00 167.00 Z M 69.00 191.00 L 69.00 188.00 L 68.00 187.00 L 68.00 182.00 L 67.00 181.00 L 67.00 164.00 L 68.00 163.00 L 68.00 158.00 L 69.00 157.00 L 69.00 155.00 L 67.00 155.00 L 66.00 156.00 L 64.00 156.00 L 63.00 157.00 L 61.00 157.00 L 60.00 158.00 L 58.00 158.00 L 57.00 159.00 L 55.00 159.00 L 54.00 160.00 L 52.00 160.00 L 51.00 161.00 L 49.00 161.00 L 48.00 162.00 L 46.00 162.00 L 45.00 163.00 L 42.00 163.00 L 41.00 164.00 L 39.00 164.00 L 38.00 165.00 L 36.00 165.00 L 35.00 166.00 L 33.00 166.00 L 32.00 167.00 L 30.00 167.00 L 29.00 168.00 L 27.00 168.00 L 26.00 169.00 L 24.00 169.00 L 23.00 170.00 L 21.00 170.00 L 20.00 171.00 L 18.00 171.00 L 17.00 172.00 L 15.00 172.00 L 14.00 173.00 L 12.00 173.00 L 13.00 174.00 L 16.00 174.00 L 17.00 175.00 L 19.00 175.00 L 20.00 176.00 L 22.00 176.00 L 23.00 177.00 L 25.00 177.00 L 26.00 178.00 L 28.00 178.00 L 29.00 179.00 L 31.00 179.00 L 32.00 180.00 L 35.00 180.00 L 36.00 181.00 L 38.00 181.00 L 39.00 182.00 L 41.00 182.00 L 42.00 183.00 L 44.00 183.00 L 45.00 184.00 L 47.00 184.00 L 48.00 185.00 L 51.00 185.00 L 52.00 186.00 L 54.00 186.00 L 55.00 187.00 L 57.00 187.00 L 58.00 188.00 L 60.00 188.00 L 61.00 189.00 L 63.00 189.00 L 64.00 190.00 L 67.00 190.00 L 68.00 191.00 Z M 172.00 12.00 L 172.00 14.00 L 171.00 15.00 L 171.00 17.00 L 170.00 18.00 L 170.00 21.00 L 169.00 22.00 L 169.00 24.00 L 168.00 25.00 L 168.00 27.00 L 167.00 28.00 L 167.00 31.00 L 166.00 32.00 L 166.00 34.00 L 165.00 35.00 L 165.00 38.00 L 164.00 39.00 L 164.00 41.00 L 163.00 42.00 L 163.00 45.00 L 162.00 46.00 L 162.00 48.00 L 161.00 49.00 L 161.00 52.00 L 160.00 53.00 L 160.00 56.00 L 159.00 57.00 L 159.00 59.00 L 158.00 60.00 L 158.00 62.00 L 159.00 63.00 L 158.00 64.00 L 157.00 64.00 L 157.00 67.00 L 156.00 68.00 L 156.00 70.00 L 155.00 71.00 L 155.00 74.00 L 158.00 74.00 L 159.00 73.00 L 171.00 73.00 L 172.00 72.00 L 173.00 73.00 L 184.00 73.00 L 185.00 74.00 L 190.00 74.00 L 190.00 73.00 L 189.00 72.00 L 189.00 69.00 L 188.00 68.00 L 188.00 65.00 L 187.00 64.00 L 187.00 62.00 L 186.00 61.00 L 186.00 58.00 L 185.00 57.00 L 185.00 55.00 L 184.00 54.00 L 184.00 51.00 L 183.00 50.00 L 183.00 48.00 L 182.00 47.00 L 182.00 44.00 L 181.00 43.00 L 181.00 40.00 L 180.00 39.00 L 180.00 37.00 L 179.00 36.00 L 179.00 34.00 L 178.00 33.00 L 178.00 30.00 L 177.00 29.00 L 177.00 26.00 L 176.00 25.00 L 176.00 23.00 L 175.00 22.00 L 175.00 20.00 L 174.00 19.00 L 174.00 16.00 L 173.00 15.00 L 173.00 12.00 Z M 186.00 65.00 L 187.00 64.00 L 188.00 65.00 L 187.00 66.00 Z"/>
    <path fill="#E1A62B" d="M 270.00 150.00 L 271.00 151.00 L 271.00 154.00 L 272.00 155.00 L 272.00 158.00 L 273.00 159.00 L 273.00 162.00 L 274.00 163.00 L 274.00 166.00 L 275.00 166.00 L 276.00 167.00 L 277.00 167.00 L 278.00 168.00 L 280.00 168.00 L 281.00 169.00 L 282.00 169.00 L 283.00 170.00 L 284.00 170.00 L 285.00 171.00 L 287.00 171.00 L 288.00 172.00 L 289.00 172.00 L 290.00 173.00 L 289.00 174.00 L 288.00 174.00 L 287.00 175.00 L 285.00 175.00 L 284.00 176.00 L 283.00 176.00 L 282.00 177.00 L 281.00 177.00 L 280.00 178.00 L 278.00 178.00 L 277.00 179.00 L 275.00 179.00 L 274.00 180.00 L 274.00 183.00 L 273.00 184.00 L 273.00 188.00 L 272.00 189.00 L 272.00 192.00 L 271.00 193.00 L 271.00 196.00 L 272.00 196.00 L 273.00 195.00 L 275.00 195.00 L 276.00 194.00 L 277.00 194.00 L 278.00 193.00 L 280.00 193.00 L 281.00 192.00 L 282.00 192.00 L 283.00 191.00 L 284.00 191.00 L 285.00 190.00 L 287.00 190.00 L 288.00 189.00 L 289.00 189.00 L 290.00 188.00 L 292.00 188.00 L 293.00 187.00 L 294.00 187.00 L 295.00 186.00 L 297.00 186.00 L 298.00 185.00 L 299.00 185.00 L 300.00 184.00 L 302.00 184.00 L 303.00 183.00 L 304.00 183.00 L 305.00 182.00 L 306.00 182.00 L 307.00 181.00 L 309.00 181.00 L 310.00 180.00 L 311.00 180.00 L 312.00 179.00 L 314.00 179.00 L 315.00 178.00 L 316.00 178.00 L 317.00 177.00 L 319.00 177.00 L 320.00 176.00 L 321.00 176.00 L 322.00 175.00 L 323.00 175.00 L 324.00 174.00 L 326.00 174.00 L 327.00 173.00 L 326.00 173.00 L 325.00 172.00 L 324.00 172.00 L 323.00 171.00 L 321.00 171.00 L 320.00 170.00 L 319.00 170.00 L 318.00 169.00 L 316.00 169.00 L 315.00 168.00 L 314.00 168.00 L 313.00 167.00 L 312.00 167.00 L 311.00 166.00 L 309.00 166.00 L 308.00 165.00 L 307.00 165.00 L 306.00 164.00 L 304.00 164.00 L 303.00 163.00 L 302.00 163.00 L 301.00 162.00 L 300.00 162.00 L 299.00 161.00 L 297.00 161.00 L 296.00 160.00 L 295.00 160.00 L 294.00 159.00 L 292.00 159.00 L 291.00 158.00 L 290.00 158.00 L 289.00 157.00 L 288.00 157.00 L 287.00 156.00 L 285.00 156.00 L 284.00 155.00 L 282.00 155.00 L 281.00 154.00 L 280.00 154.00 L 279.00 153.00 L 278.00 153.00 L 277.00 152.00 L 275.00 152.00 L 274.00 151.00 L 273.00 151.00 L 272.00 150.00 Z"/>
  </g>
</svg>