<?xml version="1.0" encoding="UTF-8"?>
<svg xmlns="http://www.w3.org/2000/svg" viewBox="0 0 780 320" role="img" aria-labelledby="logo-title">
  <title id="logo-title">Holiday Kenya Safaris</title>
  <g transform="translate(32 32)" aria-hidden="true">
    <path d="M 214.356 149.531 A 89 89 0 0 1 149.531 214.356" fill="none" stroke="#182B3A" stroke-width="15" stroke-linecap="butt"/>
    <path d="M 106.469 214.356 A 89 89 0 0 1 41.644 149.531" fill="none" stroke="#182B3A" stroke-width="15" stroke-linecap="butt"/>
    <path d="M 41.644 106.469 A 89 89 0 0 1 106.469 41.644" fill="none" stroke="#182B3A" stroke-width="15" stroke-linecap="butt"/>
    <path d="M 149.531 41.644 A 89 89 0 0 1 214.356 106.469" fill="none" stroke="#182B3A" stroke-width="15" stroke-linecap="butt"/>
    <polygon points="128,10 144,65 112,65" fill="#182B3A"/>
    <polygon points="246,128 198,109 198,147" fill="#182B3A"/>
    <polygon points="128,246 112,191 144,191" fill="#182B3A"/>
    <polygon points="10,128 65,144 65,112" fill="#182B3A"/>
    <path d="M91.59 169.0V88.7H101.82V169.0ZM66.07 169.0V88.7H76.3V169.0ZM74.54 137.43V119.61H93.35V137.43Z" fill="#182B3A" fill-rule="nonzero"/>
    <path d="M142.19 169.0 129.155 131.49H123.71000000000001L139.935 88.7H151.70499999999998L137.185 126.97999999999999V119.17L154.51 169.0ZM115.46000000000001 169.0V88.7H125.69V169.0Z" fill="#182B3A" fill-rule="nonzero"/>
    <path d="M176.125 171.2Q170.515 171.2 166.6925 167.68Q162.87 164.16 160.91750000000002 158.055Q158.965 151.95 158.965 144.03H168.865Q168.865 146.89 169.66250000000002 149.255Q170.46 151.62 172.055 152.94Q173.65 154.26 176.125 154.26Q178.26999999999998 154.26 179.78249999999997 153.16Q181.295 152.06 182.09249999999997 150.07999999999998Q182.89 148.1 182.89 145.35Q182.89 141.82999999999998 181.40499999999997 139.90499999999997Q179.92 137.98 176.4 137.43L173.815 136.99Q167.6 135.89 163.915 129.18Q160.23 122.47 160.23 111.36Q160.23 103.44 162.0725 97.83Q163.915 92.22 167.26999999999998 89.25Q170.625 86.28 175.19 86.28Q180.14 86.28 183.5775 89.58Q187.015 92.88 188.82999999999998 98.875Q190.64499999999998 104.87 190.64499999999998 112.78999999999999H180.745Q180.745 110.15 180.085 107.95Q179.425 105.75 178.1875 104.485Q176.95 103.22 175.19 103.22Q173.54 103.22 172.4125 104.265Q171.285 105.31 170.70749999999998 107.18Q170.13 109.05 170.13 111.36Q170.13 114.44 171.175 116.64Q172.22 118.84 174.805 119.28L177.39 119.72Q181.9 120.49000000000001 185.365 123.625Q188.82999999999998 126.75999999999999 190.81 132.14999999999998Q192.79 137.54 192.79 145.35Q192.79 153.16 190.7825 158.99Q188.775 164.82 185.0625 168.01Q181.35 171.2 176.125 171.2Z" fill="#182B3A" fill-rule="nonzero"/>
  </g>
  <path d="M344.996 150.0V109.12H354.18V150.0ZM318.592 150.0V109.12H327.776V150.0ZM326.152 133.48V125.444H346.62V133.48Z" fill="#182B3A" fill-rule="nonzero"/>
  <path d="M377.85400000000004 151.092Q373.808 151.092 370.672 149.832Q367.536 148.572 365.366 146.381Q363.196 144.19 362.076 141.362Q360.956 138.534 360.956 135.38400000000001V134.124Q360.956 130.89 362.125 128.01299999999998Q363.294 125.136 365.49199999999996 122.945Q367.69 120.75399999999999 370.826 119.501Q373.962 118.248 377.85400000000004 118.248Q381.788 118.248 384.903 119.501Q388.01800000000003 120.75399999999999 390.216 122.945Q392.414 125.136 393.58299999999997 128.01299999999998Q394.752 130.89 394.752 134.124V135.38400000000001Q394.752 138.534 393.632 141.362Q392.512 144.19 390.342 146.381Q388.172 148.572 385.03600000000006 149.832Q381.90000000000003 151.092 377.85400000000004 151.092ZM377.85400000000004 143.504Q380.458 143.504 382.208 142.377Q383.958 141.25 384.861 139.255Q385.764 137.26 385.764 134.754Q385.764 132.15 384.83299999999997 130.155Q383.902 128.16 382.131 126.99799999999999Q380.36 125.836 377.85400000000004 125.836Q375.362 125.836 373.58400000000006 126.99799999999999Q371.80600000000004 128.16 370.875 130.155Q369.944 132.15 369.944 134.754Q369.944 137.26 370.847 139.255Q371.75 141.25 373.521 142.377Q375.29200000000003 143.504 377.85400000000004 143.504Z" fill="#182B3A" fill-rule="nonzero"/>
  <path d="M401.41600000000005 150.0V109.12H410.40400000000005V150.0ZM397.776 115.72800000000001V109.12H410.40400000000005V115.72800000000001Z" fill="#182B3A" fill-rule="nonzero"/>
  <path d="M420.09200000000004 150.0V119.34H429.08000000000004V150.0ZM416.004 125.94800000000001V119.34H429.08000000000004V125.94800000000001ZM423.59900000000005 116.288Q421.072 116.288 419.86800000000005 114.979Q418.66400000000004 113.67 418.66400000000004 111.626Q418.66400000000004 109.582 419.87300000000005 108.273Q421.082 106.964 423.57800000000003 106.964Q426.12600000000003 106.964 427.309 108.273Q428.492 109.582 428.492 111.626Q428.492 113.67 427.309 114.979Q426.12600000000003 116.288 423.59900000000005 116.288Z" fill="#182B3A" fill-rule="nonzero"/>
  <path d="M449.996 151.008Q446.762 151.008 444.095 149.832Q441.428 148.656 439.48199999999997 146.549Q437.53599999999994 144.442 436.486 141.60000000000002Q435.436 138.758 435.436 135.426V134.166Q435.436 130.848 436.437 127.98500000000001Q437.438 125.122 439.307 122.973Q441.176 120.824 443.81499999999994 119.62Q446.45399999999995 118.416 449.702 118.416Q453.36999999999995 118.416 456.06499999999994 120.012Q458.76 121.608 460.279 124.71600000000001Q461.798 127.824 461.938 132.388L459.614 130.19V109.12H468.602V150.0H461.48999999999995V137.274H462.722Q462.582 141.656 460.92999999999995 144.736Q459.27799999999996 147.816 456.47799999999995 149.412Q453.678 151.008 449.996 151.008ZM452.236 143.532Q454.308 143.532 456.023 142.594Q457.738 141.656 458.788 139.857Q459.83799999999997 138.058 459.83799999999997 135.552V133.48Q459.83799999999997 131.03 458.76 129.357Q457.68199999999996 127.684 455.96 126.788Q454.238 125.892 452.222 125.892Q449.96799999999996 125.892 448.20399999999995 127.019Q446.44 128.14600000000002 445.432 130.14100000000002Q444.424 132.136 444.424 134.796Q444.424 137.456 445.43899999999996 139.416Q446.45399999999995 141.376 448.22499999999997 142.454Q449.996 143.532 452.236 143.532Z" fill="#182B3A" fill-rule="nonzero"/>
  <path d="M495.25800000000004 150.0V140.956H493.774V131.1Q493.774 128.734 492.64 127.565Q491.50600000000003 126.396 489.05600000000004 126.396Q487.824 126.396 485.808 126.452Q483.79200000000003 126.508 481.65000000000003 126.606Q479.50800000000004 126.70400000000001 477.77200000000005 126.816V119.256Q479.088 119.144 480.817 119.039Q482.54600000000005 118.934 484.40100000000007 118.88499999999999Q486.25600000000003 118.836 487.85200000000003 118.836Q492.57000000000005 118.836 495.797 120.15899999999999Q499.024 121.482 500.697 124.19800000000001Q502.37 126.914 502.37 131.198V150.0ZM485.458 150.784Q482.182 150.784 479.683 149.615Q477.184 148.446 475.784 146.24099999999999Q474.384 144.036 474.384 140.956Q474.384 137.554 476.127 135.405Q477.87 133.256 480.992 132.227Q484.11400000000003 131.198 488.23 131.198H494.754V136.154H488.17400000000004Q485.80800000000005 136.154 484.53400000000005 137.32299999999998Q483.26000000000005 138.492 483.26000000000005 140.41Q483.26000000000005 142.286 484.53400000000005 143.441Q485.80800000000005 144.596 488.17400000000004 144.596Q489.658 144.596 490.869 144.06400000000002Q492.08000000000004 143.532 492.87100000000004 142.23700000000002Q493.66200000000003 140.942 493.774 138.66L495.90200000000004 140.872Q495.622 144.064 494.362 146.262Q493.10200000000003 148.46 490.89 149.622Q488.678 150.784 485.458 150.784Z" fill="#182B3A" fill-rule="nonzero"/>
  <path d="M509.132 162.152V154.564H515.544Q516.986 154.564 517.9870000000001 154.19299999999998Q518.988 153.822 519.625 152.975Q520.2620000000001 152.128 520.612 150.658L528.172 119.34H536.712L528.13 152.478Q527.234 156.076 525.6310000000001 158.204Q524.028 160.332 521.3679999999999 161.242Q518.708 162.152 514.62 162.152ZM518.764 149.328V142.328H525.26V149.328ZM515.096 149.328 505.66 119.34H514.676L523.58 149.328Z" fill="#182B3A" fill-rule="nonzero"/>
  <path d="M580.5319999999999 150.0 566.42 130.904H560.764L577.9 109.12H588.456L573.0559999999999 128.664L572.93 124.71600000000001L591.6479999999999 150.0ZM553.68 150.0V109.12H562.8639999999999V150.0Z" fill="#182B3A" fill-rule="nonzero"/>
  <path d="M608.308 151.092Q604.388 151.092 601.406 149.748Q598.424 148.404 596.422 146.12900000000002Q594.42 143.854 593.384 141.026Q592.348 138.198 592.348 135.216V134.124Q592.348 131.044 593.384 128.195Q594.42 125.346 596.4010000000001 123.113Q598.3820000000001 120.88 601.301 119.564Q604.22 118.248 607.972 118.248Q612.928 118.248 616.323 120.453Q619.718 122.658 621.489 126.23500000000001Q623.26 129.812 623.26 133.984V137.022H596.128V131.898H617.87L614.916 134.292Q614.916 131.52 614.139 129.574Q613.362 127.628 611.829 126.592Q610.296 125.556 607.972 125.556Q605.662 125.556 604.024 126.613Q602.386 127.67 601.539 129.707Q600.692 131.744 600.692 134.712Q600.692 137.442 601.4970000000001 139.486Q602.302 141.53 603.982 142.65699999999998Q605.662 143.784 608.308 143.784Q610.7860000000001 143.784 612.368 142.846Q613.95 141.908 614.482 140.466H622.714Q622.056 143.588 620.1030000000001 145.99599999999998Q618.15 148.404 615.1610000000001 149.748Q612.172 151.092 608.308 151.092Z" fill="#182B3A" fill-rule="nonzero"/>
  <path d="M629.1959999999999 150.0V119.34H636.308V132.5H635.804Q635.804 127.782 637.029 124.64599999999999Q638.254 121.50999999999999 640.697 119.935Q643.14 118.36 646.682 118.36H647.074Q652.4359999999999 118.36 655.278 121.86699999999999Q658.12 125.374 658.12 132.458V150.0H649.132V131.968Q649.132 129.504 647.6969999999999 127.94999999999999Q646.262 126.396 643.77 126.396Q641.25 126.396 639.717 127.971Q638.184 129.546 638.184 132.136V150.0Z" fill="#182B3A" fill-rule="nonzero"/>
  <path d="M665.148 162.152V154.564H671.56Q673.002 154.564 674.0029999999999 154.19299999999998Q675.004 153.822 675.6410000000001 152.975Q676.278 152.128 676.6279999999999 150.658L684.188 119.34H692.728L684.146 152.478Q683.25 156.076 681.6469999999999 158.204Q680.044 160.332 677.384 161.242Q674.7239999999999 162.152 670.636 162.152ZM674.78 149.328V142.328H681.276V149.328ZM671.112 149.328 661.6759999999999 119.34H670.692L679.596 149.328Z" fill="#182B3A" fill-rule="nonzero"/>
  <path d="M715.506 150.0V140.956H714.0219999999999V131.1Q714.0219999999999 128.734 712.8879999999999 127.565Q711.7539999999999 126.396 709.304 126.396Q708.072 126.396 706.056 126.452Q704.04 126.508 701.8979999999999 126.606Q699.756 126.70400000000001 698.02 126.816V119.256Q699.336 119.144 701.065 119.039Q702.794 118.934 704.6489999999999 118.88499999999999Q706.5039999999999 118.836 708.0999999999999 118.836Q712.818 118.836 716.045 120.15899999999999Q719.2719999999999 121.482 720.9449999999999 124.19800000000001Q722.6179999999999 126.914 722.6179999999999 131.198V150.0ZM705.7059999999999 150.784Q702.43 150.784 699.9309999999999 149.615Q697.4319999999999 148.446 696.0319999999999 146.24099999999999Q694.632 144.036 694.632 140.956Q694.632 137.554 696.375 135.405Q698.1179999999999 133.256 701.24 132.227Q704.362 131.198 708.478 131.198H715.002V136.154H708.4219999999999Q706.0559999999999 136.154 704.7819999999999 137.32299999999998Q703.5079999999999 138.492 703.5079999999999 140.41Q703.5079999999999 142.286 704.7819999999999 143.441Q706.0559999999999 144.596 708.4219999999999 144.596Q709.906 144.596 711.117 144.06400000000002Q712.328 143.532 713.1189999999999 142.23700000000002Q713.91 140.942 714.0219999999999 138.66L716.15 140.872Q715.87 144.064 714.6099999999999 146.262Q713.3499999999999 148.46 711.1379999999999 149.622Q708.9259999999999 150.784 705.7059999999999 150.784Z" fill="#182B3A" fill-rule="nonzero"/>
  <path d="M332.83 221.092Q327.272 221.092 323.457 219.328Q319.642 217.564 317.675 214.49099999999999Q315.708 211.418 315.708 207.456H324.64Q324.64 209.01 325.494 210.375Q326.348 211.74 328.14700000000005 212.55200000000002Q329.946 213.364 332.83 213.364Q335.392 213.364 337.135 212.671Q338.878 211.978 339.767 210.781Q340.656 209.584 340.656 208.016Q340.656 206.042 338.976 204.894Q337.296 203.746 333.558 203.438L330.45 203.172Q324.346 202.64 320.72 199.35Q317.094 196.06 317.094 190.628Q317.094 186.666 318.956 183.824Q320.818 180.982 324.192 179.449Q327.566 177.916 332.13 177.916Q336.974 177.916 340.411 179.56799999999998Q343.848 181.22 345.68899999999996 184.216Q347.53 187.212 347.53 191.216H338.598Q338.598 189.718 337.863 188.44400000000002Q337.128 187.17000000000002 335.693 186.407Q334.258 185.644 332.13 185.644Q330.114 185.644 328.756 186.309Q327.398 186.974 326.712 188.115Q326.026 189.256 326.026 190.628Q326.026 192.364 327.25800000000004 193.638Q328.49 194.912 331.318 195.15L334.426 195.416Q338.92 195.794 342.329 197.348Q345.738 198.902 347.663 201.555Q349.588 204.208 349.588 208.016Q349.588 211.936 347.55100000000004 214.89Q345.514 217.844 341.769 219.46800000000002Q338.024 221.092 332.83 221.092Z" fill="#182B3A" fill-rule="nonzero"/>
  <path d="M373.962 220.0V210.956H372.47799999999995V201.1Q372.47799999999995 198.734 371.34399999999994 197.565Q370.21 196.39600000000002 367.76 196.39600000000002Q366.52799999999996 196.39600000000002 364.51199999999994 196.452Q362.496 196.508 360.354 196.606Q358.212 196.704 356.476 196.816V189.256Q357.792 189.144 359.52099999999996 189.039Q361.25 188.934 363.105 188.885Q364.96 188.836 366.556 188.836Q371.274 188.836 374.501 190.159Q377.72799999999995 191.482 379.40099999999995 194.19799999999998Q381.07399999999996 196.914 381.07399999999996 201.198V220.0ZM364.162 220.784Q360.88599999999997 220.784 358.38699999999994 219.615Q355.888 218.446 354.48799999999994 216.24099999999999Q353.08799999999997 214.036 353.08799999999997 210.956Q353.08799999999997 207.554 354.83099999999996 205.405Q356.57399999999996 203.256 359.69599999999997 202.227Q362.818 201.198 366.93399999999997 201.198H373.45799999999997V206.154H366.878Q364.512 206.154 363.238 207.32299999999998Q361.964 208.492 361.964 210.41Q361.964 212.286 363.238 213.441Q364.512 214.596 366.878 214.596Q368.36199999999997 214.596 369.573 214.06400000000002Q370.784 213.532 371.575 212.23700000000002Q372.366 210.942 372.47799999999995 208.66L374.606 210.872Q374.32599999999996 214.064 373.066 216.262Q371.806 218.46 369.59399999999994 219.622Q367.38199999999995 220.784 364.162 220.784Z" fill="#182B3A" fill-rule="nonzero"/>
  <path d="M389.376 220.0V189.046Q389.376 183.726 392.38599999999997 181.143Q395.39599999999996 178.56 401.28999999999996 178.56H405.19599999999997V185.308H400.89799999999997Q399.37199999999996 185.308 398.54599999999994 186.141Q397.71999999999997 186.974 397.71999999999997 188.486V220.0ZM385.736 196.48V189.928H405.67199999999997V196.48Z" fill="#182B3A" fill-rule="nonzero"/>
  <path d="M428.50600000000003 220.0V210.956H427.022V201.1Q427.022 198.734 425.88800000000003 197.565Q424.754 196.39600000000002 422.30400000000003 196.39600000000002Q421.072 196.39600000000002 419.05600000000004 196.452Q417.04 196.508 414.898 196.606Q412.75600000000003 196.704 411.02000000000004 196.816V189.256Q412.336 189.144 414.06500000000005 189.039Q415.79400000000004 188.934 417.649 188.885Q419.504 188.836 421.1 188.836Q425.81800000000004 188.836 429.045 190.159Q432.272 191.482 433.945 194.19799999999998Q435.618 196.914 435.618 201.198V220.0ZM418.706 220.784Q415.43 220.784 412.93100000000004 219.615Q410.432 218.446 409.03200000000004 216.24099999999999Q407.632 214.036 407.632 210.956Q407.632 207.554 409.375 205.405Q411.118 203.256 414.24 202.227Q417.362 201.198 421.478 201.198H428.002V206.154H421.422Q419.05600000000004 206.154 417.78200000000004 207.32299999999998Q416.50800000000004 208.492 416.50800000000004 210.41Q416.50800000000004 212.286 417.78200000000004 213.441Q419.05600000000004 214.596 421.422 214.596Q422.906 214.596 424.117 214.06400000000002Q425.32800000000003 213.532 426.119 212.23700000000002Q426.91 210.942 427.022 208.66L429.15000000000003 210.872Q428.87 214.064 427.61 216.262Q426.35 218.46 424.13800000000003 219.622Q421.92600000000004 220.784 418.706 220.784Z" fill="#182B3A" fill-rule="nonzero"/>
  <path d="M443.21999999999997 220.0V189.34H450.332V202.5H450.19199999999995Q450.19199999999995 195.99 452.94999999999993 192.45499999999998Q455.70799999999997 188.92 460.972 188.92H462.14799999999997V196.676H459.90799999999996Q456.22599999999994 196.676 454.217 198.65699999999998Q452.20799999999997 200.638 452.20799999999997 204.362V220.0Z" fill="#182B3A" fill-rule="nonzero"/>
  <path d="M468.252 220.0V189.34H477.24V220.0ZM464.164 195.948V189.34H477.24V195.948ZM471.759 186.288Q469.23199999999997 186.288 468.028 184.979Q466.824 183.67000000000002 466.824 181.626Q466.824 179.582 468.033 178.273Q469.24199999999996 176.964 471.738 176.964Q474.286 176.964 475.469 178.273Q476.652 179.582 476.652 181.626Q476.652 183.67000000000002 475.469 184.979Q474.286 186.288 471.759 186.288Z" fill="#182B3A" fill-rule="nonzero"/>
  <path d="M497.148 220.98Q490.638 220.98 486.93499999999995 218.27100000000002Q483.23199999999997 215.562 482.99399999999997 210.69H490.974Q491.17 212.174 492.717 213.315Q494.264 214.456 497.316 214.456Q499.682 214.456 501.22900000000004 213.65800000000002Q502.776 212.86 502.776 211.334Q502.776 209.99 501.586 209.164Q500.396 208.338 497.386 208.044L494.978 207.792Q489.462 207.218 486.69 204.719Q483.918 202.22 483.918 198.286Q483.918 195.01 485.54200000000003 192.83999999999997Q487.166 190.67 490.036 189.557Q492.906 188.444 496.602 188.444Q502.524 188.444 506.164 191.041Q509.804 193.638 510.0 198.566H502.02Q501.838 197.06799999999998 500.473 196.01799999999997Q499.108 194.968 496.518 194.968Q494.432 194.968 493.207 195.752Q491.98199999999997 196.536 491.98199999999997 197.86599999999999Q491.98199999999997 199.168 493.046 199.84Q494.11 200.512 496.49 200.792L498.898 201.044Q504.554 201.632 507.697 204.166Q510.84 206.7 510.84 210.914Q510.84 214.008 509.15999999999997 216.269Q507.48 218.53 504.40700000000004 219.755Q501.334 220.98 497.148 220.98Z" fill="#182B3A" fill-rule="nonzero"/>
</svg>
