<?xml version="1.0" encoding="UTF-8"?>
<svg xmlns="http://www.w3.org/2000/svg" viewBox="0 0 430 150" role="img" aria-labelledby="logo-title">
  <title id="logo-title">Holiday Kenya Safaris</title>
  <path d="M36.996 52.0V11.119999999999997H46.18V52.0ZM10.592 52.0V11.119999999999997H19.776V52.0ZM18.152 35.480000000000004V27.444H38.62V35.480000000000004Z" fill="#182B3A" fill-rule="nonzero"/>
  <path d="M69.85400000000001 53.092Q65.808 53.092 62.672000000000004 51.832Q59.536 50.572 57.366 48.381Q55.196000000000005 46.19 54.07600000000001 43.361999999999995Q52.956 40.534 52.956 37.384V36.124Q52.956 32.89 54.125 30.012999999999998Q55.294000000000004 27.136 57.492000000000004 24.945Q59.690000000000005 22.753999999999998 62.82600000000001 21.500999999999998Q65.962 20.248 69.85400000000001 20.248Q73.78800000000001 20.248 76.903 21.500999999999998Q80.018 22.753999999999998 82.21600000000001 24.945Q84.414 27.136 85.583 30.012999999999998Q86.75200000000001 32.89 86.75200000000001 36.124V37.384Q86.75200000000001 40.534 85.632 43.361999999999995Q84.512 46.19 82.342 48.381Q80.172 50.572 77.036 51.832Q73.9 53.092 69.85400000000001 53.092ZM69.85400000000001 45.504Q72.458 45.504 74.208 44.376999999999995Q75.958 43.25 76.861 41.254999999999995Q77.76400000000001 39.26 77.76400000000001 36.754Q77.76400000000001 34.15 76.833 32.155Q75.902 30.16 74.131 28.997999999999998Q72.36 27.836 69.85400000000001 27.836Q67.36200000000001 27.836 65.584 28.997999999999998Q63.806000000000004 30.16 62.875 32.155Q61.944 34.15 61.944 36.754Q61.944 39.26 62.84700000000001 41.254999999999995Q63.75000000000001 43.25 65.521 44.376999999999995Q67.292 45.504 69.85400000000001 45.504Z" fill="#182B3A" fill-rule="nonzero"/>
  <path d="M93.41600000000001 52.0V11.119999999999997H102.40400000000001V52.0ZM89.77600000000001 17.728V11.119999999999997H102.40400000000001V17.728Z" fill="#182B3A" fill-rule="nonzero"/>
  <path d="M112.09200000000001 52.0V21.34H121.08000000000001V52.0ZM108.004 27.948V21.34H121.08000000000001V27.948ZM115.599 18.287999999999997Q113.072 18.287999999999997 111.868 16.979Q110.664 15.670000000000002 110.664 13.625999999999998Q110.664 11.582 111.873 10.273Q113.08200000000001 8.963999999999999 115.578 8.963999999999999Q118.126 8.963999999999999 119.309 10.273Q120.492 11.582 120.492 13.625999999999998Q120.492 15.670000000000002 119.309 16.979Q118.126 18.287999999999997 115.599 18.287999999999997Z" fill="#182B3A" fill-rule="nonzero"/>
  <path d="M141.996 53.008Q138.762 53.008 136.095 51.832Q133.428 50.656 131.482 48.549Q129.536 46.442 128.486 43.599999999999994Q127.436 40.757999999999996 127.436 37.426V36.166Q127.436 32.848 128.437 29.985Q129.438 27.122 131.307 24.973Q133.176 22.823999999999998 135.815 21.619999999999997Q138.454 20.416 141.702 20.416Q145.37 20.416 148.065 22.012Q150.76 23.608 152.279 26.716Q153.798 29.823999999999998 153.938 34.388L151.614 32.19V11.119999999999997H160.602V52.0H153.49V39.274H154.722Q154.582 43.656 152.93 46.736000000000004Q151.278 49.816 148.478 51.412000000000006Q145.678 53.008 141.996 53.008ZM144.236 45.532Q146.308 45.532 148.023 44.593999999999994Q149.738 43.656 150.788 41.857Q151.838 40.058 151.838 37.552V35.480000000000004Q151.838 33.03 150.76 31.357Q149.68200000000002 29.684 147.96 28.788Q146.238 27.892 144.222 27.892Q141.968 27.892 140.204 29.019Q138.44 30.146 137.43200000000002 32.141Q136.424 34.135999999999996 136.424 36.796Q136.424 39.456 137.43900000000002 41.416Q138.454 43.376 140.22500000000002 44.45399999999999Q141.996 45.532 144.236 45.532Z" fill="#182B3A" fill-rule="nonzero"/>
  <path d="M187.25799999999998 52.0V42.956H185.774V33.099999999999994Q185.774 30.733999999999998 184.64 29.564999999999998Q183.506 28.396 181.05599999999998 28.396Q179.82399999999998 28.396 177.808 28.451999999999998Q175.792 28.508 173.65 28.606Q171.508 28.704 169.772 28.816V21.256Q171.088 21.144 172.817 21.039Q174.546 20.934 176.401 20.884999999999998Q178.256 20.836 179.852 20.836Q184.57 20.836 187.797 22.159Q191.024 23.482 192.697 26.198Q194.37 28.913999999999998 194.37 33.198V52.0ZM177.458 52.784Q174.182 52.784 171.683 51.614999999999995Q169.184 50.446 167.784 48.241Q166.384 46.036 166.384 42.956Q166.384 39.554 168.127 37.405Q169.87 35.256 172.99200000000002 34.227000000000004Q176.114 33.198 180.23 33.198H186.754V38.153999999999996H180.174Q177.808 38.153999999999996 176.534 39.32299999999999Q175.26 40.492 175.26 42.41Q175.26 44.286 176.534 45.441Q177.808 46.596000000000004 180.174 46.596000000000004Q181.658 46.596000000000004 182.86899999999997 46.064Q184.07999999999998 45.532 184.87099999999998 44.236999999999995Q185.662 42.942 185.774 40.66L187.902 42.872Q187.62199999999999 46.064 186.362 48.262Q185.102 50.46 182.89 51.622Q180.678 52.784 177.458 52.784Z" fill="#182B3A" fill-rule="nonzero"/>
  <path d="M201.132 64.152V56.564H207.544Q208.98600000000002 56.564 209.98700000000002 56.193Q210.98800000000003 55.822 211.62500000000003 54.975Q212.26200000000003 54.128 212.61200000000002 52.658L220.17200000000003 21.34H228.71200000000002L220.13000000000002 54.478Q219.234 58.076 217.63100000000003 60.204Q216.02800000000002 62.332 213.36800000000002 63.242000000000004Q210.70800000000003 64.152 206.62 64.152ZM210.764 51.328V44.328H217.26000000000002V51.328ZM207.096 51.328 197.66000000000003 21.34H206.67600000000002L215.58 51.328Z" fill="#182B3A" fill-rule="nonzero"/>
  <path d="M272.532 52.0 258.42 32.903999999999996H252.76399999999998L269.9 11.119999999999997H280.456L265.056 30.663999999999998L264.93 26.716L283.648 52.0ZM245.68 52.0V11.119999999999997H254.864V52.0Z" fill="#182B3A" fill-rule="nonzero"/>
  <path d="M300.308 53.092Q296.38800000000003 53.092 293.406 51.748Q290.424 50.403999999999996 288.422 48.129Q286.42 45.854 285.384 43.025999999999996Q284.348 40.198 284.348 37.216V36.124Q284.348 33.044 285.384 30.195Q286.42 27.346 288.401 25.113Q290.382 22.88 293.30100000000004 21.564Q296.22 20.248 299.972 20.248Q304.928 20.248 308.323 22.453Q311.718 24.657999999999998 313.48900000000003 28.235Q315.26 31.812 315.26 35.983999999999995V39.022H288.128V33.897999999999996H309.87L306.916 36.292Q306.916 33.519999999999996 306.139 31.573999999999998Q305.362 29.628 303.829 28.592Q302.296 27.556 299.972 27.556Q297.66200000000003 27.556 296.024 28.613Q294.386 29.669999999999998 293.539 31.707Q292.692 33.744 292.692 36.712Q292.692 39.442 293.497 41.486000000000004Q294.302 43.53 295.982 44.657Q297.66200000000003 45.784 300.308 45.784Q302.786 45.784 304.368 44.846000000000004Q305.95 43.908 306.482 42.466H314.714Q314.056 45.588 312.103 47.995999999999995Q310.15000000000003 50.403999999999996 307.16100000000006 51.748Q304.172 53.092 300.308 53.092Z" fill="#182B3A" fill-rule="nonzero"/>
  <path d="M321.196 52.0V21.34H328.30800000000005V34.5H327.80400000000003Q327.80400000000003 29.782 329.029 26.646Q330.254 23.509999999999998 332.697 21.935Q335.14000000000004 20.36 338.682 20.36H339.074Q344.43600000000004 20.36 347.278 23.866999999999997Q350.12 27.374 350.12 34.458V52.0H341.132V33.968Q341.132 31.504 339.697 29.950000000000003Q338.262 28.396 335.77000000000004 28.396Q333.25 28.396 331.717 29.971Q330.184 31.546 330.184 34.135999999999996V52.0Z" fill="#182B3A" fill-rule="nonzero"/>
  <path d="M357.148 64.152V56.564H363.56000000000006Q365.002 56.564 366.00300000000004 56.193Q367.004 55.822 367.641 54.975Q368.278 54.128 368.62800000000004 52.658L376.18800000000005 21.34H384.72800000000007L376.146 54.478Q375.25000000000006 58.076 373.64700000000005 60.204Q372.04400000000004 62.332 369.384 63.242000000000004Q366.72400000000005 64.152 362.636 64.152ZM366.78000000000003 51.328V44.328H373.276V51.328ZM363.112 51.328 353.67600000000004 21.34H362.692L371.59600000000006 51.328Z" fill="#182B3A" fill-rule="nonzero"/>
  <path d="M407.50600000000003 52.0V42.956H406.022V33.099999999999994Q406.022 30.733999999999998 404.88800000000003 29.564999999999998Q403.754 28.396 401.30400000000003 28.396Q400.072 28.396 398.05600000000004 28.451999999999998Q396.04 28.508 393.898 28.606Q391.75600000000003 28.704 390.02000000000004 28.816V21.256Q391.336 21.144 393.06500000000005 21.039Q394.79400000000004 20.934 396.649 20.884999999999998Q398.504 20.836 400.1 20.836Q404.81800000000004 20.836 408.045 22.159Q411.272 23.482 412.945 26.198Q414.618 28.913999999999998 414.618 33.198V52.0ZM397.706 52.784Q394.43 52.784 391.93100000000004 51.614999999999995Q389.432 50.446 388.03200000000004 48.241Q386.632 46.036 386.632 42.956Q386.632 39.554 388.375 37.405Q390.118 35.256 393.24 34.227000000000004Q396.362 33.198 400.478 33.198H407.002V38.153999999999996H400.422Q398.05600000000004 38.153999999999996 396.78200000000004 39.32299999999999Q395.50800000000004 40.492 395.50800000000004 42.41Q395.50800000000004 44.286 396.78200000000004 45.441Q398.05600000000004 46.596000000000004 400.422 46.596000000000004Q401.906 46.596000000000004 403.117 46.064Q404.32800000000003 45.532 405.119 44.236999999999995Q405.91 42.942 406.022 40.66L408.15000000000003 42.872Q407.87 46.064 406.61 48.262Q405.35 50.46 403.13800000000003 51.622Q400.92600000000004 52.784 397.706 52.784Z" fill="#182B3A" fill-rule="nonzero"/>
  <path d="M24.830000000000002 123.092Q19.272 123.092 15.456999999999999 121.328Q11.642 119.564 9.675 116.491Q7.708 113.418 7.708 109.456H16.64Q16.64 111.01 17.494 112.375Q18.348 113.74 20.147 114.55199999999999Q21.945999999999998 115.364 24.830000000000002 115.364Q27.392 115.364 29.134999999999998 114.67099999999999Q30.878 113.978 31.767 112.781Q32.656 111.584 32.656 110.016Q32.656 108.042 30.976 106.894Q29.296 105.746 25.558 105.438L22.45 105.172Q16.346 104.64 12.719999999999999 101.35Q9.094 98.06 9.094 92.628Q9.094 88.666 10.956 85.824Q12.818000000000001 82.982 16.192 81.449Q19.566000000000003 79.916 24.13 79.916Q28.974 79.916 32.411 81.568Q35.848 83.22 37.689 86.216Q39.53 89.21199999999999 39.53 93.21600000000001H30.598Q30.598 91.718 29.863 90.444Q29.128 89.17 27.692999999999998 88.40700000000001Q26.258 87.644 24.13 87.644Q22.114 87.644 20.756 88.309Q19.398 88.97399999999999 18.712 90.115Q18.026 91.256 18.026 92.628Q18.026 94.364 19.258000000000003 95.638Q20.490000000000002 96.912 23.318 97.15L26.426000000000002 97.416Q30.92 97.794 34.329 99.348Q37.738 100.902 39.663 103.555Q41.588 106.208 41.588 110.016Q41.588 113.936 39.551 116.89Q37.513999999999996 119.844 33.769 121.46799999999999Q30.024 123.092 24.830000000000002 123.092Z" fill="#182B3A" fill-rule="nonzero"/>
  <path d="M65.962 122.0V112.956H64.47800000000001V103.1Q64.47800000000001 100.734 63.34400000000001 99.565Q62.21000000000001 98.396 59.760000000000005 98.396Q58.528000000000006 98.396 56.512 98.452Q54.496 98.508 52.354 98.606Q50.212 98.70400000000001 48.476000000000006 98.816V91.256Q49.792 91.144 51.521 91.039Q53.25 90.934 55.105000000000004 90.88499999999999Q56.96000000000001 90.836 58.556000000000004 90.836Q63.274 90.836 66.501 92.15899999999999Q69.72800000000001 93.482 71.40100000000001 96.19800000000001Q73.07400000000001 98.914 73.07400000000001 103.19800000000001V122.0ZM56.162000000000006 122.784Q52.886 122.784 50.387 121.61500000000001Q47.888000000000005 120.446 46.488 118.241Q45.088 116.036 45.088 112.956Q45.088 109.554 46.831 107.405Q48.574000000000005 105.256 51.696000000000005 104.227Q54.818000000000005 103.19800000000001 58.934000000000005 103.19800000000001H65.458V108.154H58.878Q56.512 108.154 55.238 109.32300000000001Q53.964000000000006 110.492 53.964000000000006 112.41Q53.964000000000006 114.286 55.238 115.441Q56.512 116.596 58.878 116.596Q60.36200000000001 116.596 61.57300000000001 116.064Q62.784000000000006 115.532 63.575 114.237Q64.366 112.94200000000001 64.47800000000001 110.66L66.60600000000001 112.872Q66.32600000000001 116.064 65.066 118.262Q63.806000000000004 120.46 61.59400000000001 121.622Q59.382000000000005 122.784 56.162000000000006 122.784Z" fill="#182B3A" fill-rule="nonzero"/>
  <path d="M81.376 122.0V91.04599999999999Q81.376 85.726 84.386 83.143Q87.396 80.56 93.28999999999999 80.56H97.196V87.30799999999999H92.898Q91.372 87.30799999999999 90.54599999999999 88.14099999999999Q89.72 88.97399999999999 89.72 90.486V122.0ZM77.736 98.48V91.928H97.672V98.48Z" fill="#182B3A" fill-rule="nonzero"/>
  <path d="M120.506 122.0V112.956H119.022V103.1Q119.022 100.734 117.888 99.565Q116.754 98.396 114.304 98.396Q113.072 98.396 111.05600000000001 98.452Q109.04 98.508 106.898 98.606Q104.756 98.70400000000001 103.02 98.816V91.256Q104.336 91.144 106.065 91.039Q107.794 90.934 109.649 90.88499999999999Q111.504 90.836 113.1 90.836Q117.818 90.836 121.045 92.15899999999999Q124.272 93.482 125.945 96.19800000000001Q127.618 98.914 127.618 103.19800000000001V122.0ZM110.706 122.784Q107.43 122.784 104.93100000000001 121.61500000000001Q102.432 120.446 101.03200000000001 118.241Q99.632 116.036 99.632 112.956Q99.632 109.554 101.375 107.405Q103.118 105.256 106.24 104.227Q109.362 103.19800000000001 113.47800000000001 103.19800000000001H120.00200000000001V108.154H113.422Q111.056 108.154 109.782 109.32300000000001Q108.508 110.492 108.508 112.41Q108.508 114.286 109.782 115.441Q111.056 116.596 113.422 116.596Q114.906 116.596 116.117 116.064Q117.328 115.532 118.119 114.237Q118.91 112.94200000000001 119.022 110.66L121.15 112.872Q120.87 116.064 119.61 118.262Q118.35 120.46 116.138 121.622Q113.926 122.784 110.706 122.784Z" fill="#182B3A" fill-rule="nonzero"/>
  <path d="M135.22 122.0V91.34H142.332V104.5H142.192Q142.192 97.99 144.95 94.455Q147.708 90.92 152.972 90.92H154.148V98.676H151.908Q148.226 98.676 146.21699999999998 100.65700000000001Q144.208 102.638 144.208 106.362V122.0Z" fill="#182B3A" fill-rule="nonzero"/>
  <path d="M160.25199999999998 122.0V91.34H169.23999999999998V122.0ZM156.164 97.94800000000001V91.34H169.23999999999998V97.94800000000001ZM163.759 88.288Q161.232 88.288 160.028 86.979Q158.82399999999998 85.67 158.82399999999998 83.626Q158.82399999999998 81.582 160.033 80.273Q161.242 78.964 163.738 78.964Q166.286 78.964 167.469 80.273Q168.652 81.582 168.652 83.626Q168.652 85.67 167.469 86.979Q166.286 88.288 163.759 88.288Z" fill="#182B3A" fill-rule="nonzero"/>
  <path d="M189.148 122.98Q182.638 122.98 178.935 120.271Q175.232 117.562 174.994 112.69H182.974Q183.17 114.174 184.71699999999998 115.315Q186.264 116.456 189.316 116.456Q191.682 116.456 193.22899999999998 115.658Q194.776 114.86 194.776 113.334Q194.776 111.99 193.586 111.16399999999999Q192.396 110.338 189.386 110.044L186.978 109.792Q181.462 109.218 178.69 106.719Q175.918 104.22 175.918 100.286Q175.918 97.00999999999999 177.542 94.84Q179.166 92.67 182.036 91.557Q184.906 90.444 188.602 90.444Q194.524 90.444 198.164 93.041Q201.804 95.638 202.0 100.566H194.02Q193.838 99.068 192.473 98.018Q191.108 96.968 188.518 96.968Q186.432 96.968 185.207 97.75200000000001Q183.982 98.536 183.982 99.866Q183.982 101.168 185.046 101.84Q186.10999999999999 102.512 188.49 102.792L190.898 103.044Q196.554 103.632 199.697 106.166Q202.84 108.7 202.84 112.914Q202.84 116.008 201.16 118.269Q199.48 120.53 196.40699999999998 121.755Q193.334 122.98 189.148 122.98Z" fill="#182B3A" fill-rule="nonzero"/>
</svg>
