<?xml version="1.0" encoding="UTF-8"?>
<svg xmlns="http://www.w3.org/2000/svg" viewBox="0 0 256 256" role="img" aria-labelledby="logo-title">
  <title id="logo-title">Holiday Kenya Safaris Wayfinder icon</title>
  <path d="M 214.356 149.531 A 89 89 0 0 1 149.531 214.356" fill="none" stroke="#FFFFFF" stroke-width="15" stroke-linecap="butt"/>
  <path d="M 106.469 214.356 A 89 89 0 0 1 41.644 149.531" fill="none" stroke="#FFFFFF" stroke-width="15" stroke-linecap="butt"/>
  <path d="M 41.644 106.469 A 89 89 0 0 1 106.469 41.644" fill="none" stroke="#FFFFFF" stroke-width="15" stroke-linecap="butt"/>
  <path d="M 149.531 41.644 A 89 89 0 0 1 214.356 106.469" fill="none" stroke="#FFFFFF" stroke-width="15" stroke-linecap="butt"/>
  <polygon points="128,10 144,65 112,65" fill="#FFFFFF"/>
  <polygon points="246,128 198,109 198,147" fill="#E1A62B"/>
  <polygon points="128,246 112,191 144,191" fill="#FFFFFF"/>
  <polygon points="10,128 65,144 65,112" fill="#FFFFFF"/>
  <path d="M91.59 169.0V88.7H101.82V169.0ZM66.07 169.0V88.7H76.3V169.0ZM74.54 137.43V119.61H93.35V137.43Z" fill="#FFFFFF" fill-rule="nonzero"/>
  <path d="M142.19 169.0 129.155 131.49H123.71000000000001L139.935 88.7H151.70499999999998L137.185 126.97999999999999V119.17L154.51 169.0ZM115.46000000000001 169.0V88.7H125.69V169.0Z" fill="#FFFFFF" fill-rule="nonzero"/>
  <path d="M176.125 171.2Q170.515 171.2 166.6925 167.68Q162.87 164.16 160.91750000000002 158.055Q158.965 151.95 158.965 144.03H168.865Q168.865 146.89 169.66250000000002 149.255Q170.46 151.62 172.055 152.94Q173.65 154.26 176.125 154.26Q178.26999999999998 154.26 179.78249999999997 153.16Q181.295 152.06 182.09249999999997 150.07999999999998Q182.89 148.1 182.89 145.35Q182.89 141.82999999999998 181.40499999999997 139.90499999999997Q179.92 137.98 176.4 137.43L173.815 136.99Q167.6 135.89 163.915 129.18Q160.23 122.47 160.23 111.36Q160.23 103.44 162.0725 97.83Q163.915 92.22 167.26999999999998 89.25Q170.625 86.28 175.19 86.28Q180.14 86.28 183.5775 89.58Q187.015 92.88 188.82999999999998 98.875Q190.64499999999998 104.87 190.64499999999998 112.78999999999999H180.745Q180.745 110.15 180.085 107.95Q179.425 105.75 178.1875 104.485Q176.95 103.22 175.19 103.22Q173.54 103.22 172.4125 104.265Q171.285 105.31 170.70749999999998 107.18Q170.13 109.05 170.13 111.36Q170.13 114.44 171.175 116.64Q172.22 118.84 174.805 119.28L177.39 119.72Q181.9 120.49000000000001 185.365 123.625Q188.82999999999998 126.75999999999999 190.81 132.14999999999998Q192.79 137.54 192.79 145.35Q192.79 153.16 190.7825 158.99Q188.775 164.82 185.0625 168.01Q181.35 171.2 176.125 171.2Z" fill="#FFFFFF" fill-rule="nonzero"/>
</svg>
