<?xml version="1.0" encoding="UTF-8"?>
<svg xmlns="http://www.w3.org/2000/svg" viewBox="0 0 720 256" role="img" aria-labelledby="logo-title">
  <title id="logo-title">Holiday Kenya Safaris</title>
  <g aria-hidden="true">
    <path d="M 214.356 149.531 A 89 89 0 0 1 149.531 214.356" fill="none" stroke="#FFFFFF" stroke-width="15" stroke-linecap="butt"/>
    <path d="M 106.469 214.356 A 89 89 0 0 1 41.644 149.531" fill="none" stroke="#FFFFFF" stroke-width="15" stroke-linecap="butt"/>
    <path d="M 41.644 106.469 A 89 89 0 0 1 106.469 41.644" fill="none" stroke="#FFFFFF" stroke-width="15" stroke-linecap="butt"/>
    <path d="M 149.531 41.644 A 89 89 0 0 1 214.356 106.469" fill="none" stroke="#FFFFFF" stroke-width="15" stroke-linecap="butt"/>
    <polygon points="128,10 144,65 112,65" fill="#FFFFFF"/>
    <polygon points="246,128 198,109 198,147" fill="#E1A62B"/>
    <polygon points="128,246 112,191 144,191" fill="#FFFFFF"/>
    <polygon points="10,128 65,144 65,112" fill="#FFFFFF"/>
    <path d="M91.59 169.0V88.7H101.82V169.0ZM66.07 169.0V88.7H76.3V169.0ZM74.54 137.43V119.61H93.35V137.43Z" fill="#FFFFFF" fill-rule="nonzero"/>
    <path d="M142.19 169.0 129.155 131.49H123.71000000000001L139.935 88.7H151.70499999999998L137.185 126.97999999999999V119.17L154.51 169.0ZM115.46000000000001 169.0V88.7H125.69V169.0Z" fill="#FFFFFF" fill-rule="nonzero"/>
    <path d="M176.125 171.2Q170.515 171.2 166.6925 167.68Q162.87 164.16 160.91750000000002 158.055Q158.965 151.95 158.965 144.03H168.865Q168.865 146.89 169.66250000000002 149.255Q170.46 151.62 172.055 152.94Q173.65 154.26 176.125 154.26Q178.26999999999998 154.26 179.78249999999997 153.16Q181.295 152.06 182.09249999999997 150.07999999999998Q182.89 148.1 182.89 145.35Q182.89 141.82999999999998 181.40499999999997 139.90499999999997Q179.92 137.98 176.4 137.43L173.815 136.99Q167.6 135.89 163.915 129.18Q160.23 122.47 160.23 111.36Q160.23 103.44 162.0725 97.83Q163.915 92.22 167.26999999999998 89.25Q170.625 86.28 175.19 86.28Q180.14 86.28 183.5775 89.58Q187.015 92.88 188.82999999999998 98.875Q190.64499999999998 104.87 190.64499999999998 112.78999999999999H180.745Q180.745 110.15 180.085 107.95Q179.425 105.75 178.1875 104.485Q176.95 103.22 175.19 103.22Q173.54 103.22 172.4125 104.265Q171.285 105.31 170.70749999999998 107.18Q170.13 109.05 170.13 111.36Q170.13 114.44 171.175 116.64Q172.22 118.84 174.805 119.28L177.39 119.72Q181.9 120.49000000000001 185.365 123.625Q188.82999999999998 126.75999999999999 190.81 132.14999999999998Q192.79 137.54 192.79 145.35Q192.79 153.16 190.7825 158.99Q188.775 164.82 185.0625 168.01Q181.35 171.2 176.125 171.2Z" fill="#FFFFFF" fill-rule="nonzero"/>
  </g>
  <path d="M312.996 118.0V77.12H322.18V118.0ZM286.592 118.0V77.12H295.776V118.0ZM294.152 101.48V93.444H314.62V101.48Z" fill="#FFFFFF" fill-rule="nonzero"/>
  <path d="M345.85400000000004 119.092Q341.808 119.092 338.672 117.832Q335.536 116.572 333.366 114.381Q331.196 112.19 330.076 109.362Q328.956 106.53399999999999 328.956 103.384V102.124Q328.956 98.89 330.125 96.013Q331.294 93.136 333.49199999999996 90.945Q335.69 88.75399999999999 338.826 87.501Q341.962 86.248 345.85400000000004 86.248Q349.788 86.248 352.903 87.501Q356.01800000000003 88.75399999999999 358.216 90.945Q360.414 93.136 361.58299999999997 96.013Q362.752 98.89 362.752 102.124V103.384Q362.752 106.53399999999999 361.632 109.362Q360.512 112.19 358.342 114.381Q356.172 116.572 353.03600000000006 117.832Q349.90000000000003 119.092 345.85400000000004 119.092ZM345.85400000000004 111.504Q348.458 111.504 350.208 110.37700000000001Q351.958 109.25 352.861 107.255Q353.764 105.26 353.764 102.754Q353.764 100.15 352.83299999999997 98.155Q351.902 96.16 350.131 94.99799999999999Q348.36 93.836 345.85400000000004 93.836Q343.362 93.836 341.58400000000006 94.99799999999999Q339.80600000000004 96.16 338.875 98.155Q337.944 100.15 337.944 102.754Q337.944 105.26 338.847 107.255Q339.75 109.25 341.521 110.37700000000001Q343.29200000000003 111.504 345.85400000000004 111.504Z" fill="#FFFFFF" fill-rule="nonzero"/>
  <path d="M369.41600000000005 118.0V77.12H378.40400000000005V118.0ZM365.776 83.72800000000001V77.12H378.40400000000005V83.72800000000001Z" fill="#FFFFFF" fill-rule="nonzero"/>
  <path d="M388.09200000000004 118.0V87.34H397.08000000000004V118.0ZM384.004 93.94800000000001V87.34H397.08000000000004V93.94800000000001ZM391.59900000000005 84.288Q389.072 84.288 387.86800000000005 82.979Q386.66400000000004 81.67 386.66400000000004 79.626Q386.66400000000004 77.582 387.87300000000005 76.273Q389.082 74.964 391.57800000000003 74.964Q394.12600000000003 74.964 395.309 76.273Q396.492 77.582 396.492 79.626Q396.492 81.67 395.309 82.979Q394.12600000000003 84.288 391.59900000000005 84.288Z" fill="#FFFFFF" fill-rule="nonzero"/>
  <path d="M417.996 119.008Q414.762 119.008 412.095 117.832Q409.428 116.656 407.48199999999997 114.549Q405.53599999999994 112.44200000000001 404.486 109.6Q403.436 106.758 403.436 103.426V102.166Q403.436 98.848 404.437 95.985Q405.438 93.122 407.307 90.973Q409.176 88.824 411.81499999999994 87.62Q414.45399999999995 86.416 417.702 86.416Q421.36999999999995 86.416 424.06499999999994 88.012Q426.76 89.608 428.279 92.71600000000001Q429.798 95.824 429.938 100.388L427.614 98.19V77.12H436.602V118.0H429.48999999999995V105.274H430.722Q430.582 109.656 428.92999999999995 112.736Q427.27799999999996 115.816 424.47799999999995 117.412Q421.678 119.008 417.996 119.008ZM420.236 111.532Q422.308 111.532 424.023 110.594Q425.738 109.656 426.788 107.857Q427.83799999999997 106.05799999999999 427.83799999999997 103.55199999999999V101.48Q427.83799999999997 99.03 426.76 97.357Q425.68199999999996 95.684 423.96 94.788Q422.238 93.892 420.222 93.892Q417.96799999999996 93.892 416.20399999999995 95.019Q414.44 96.146 413.432 98.14099999999999Q412.424 100.136 412.424 102.79599999999999Q412.424 105.456 413.43899999999996 107.416Q414.45399999999995 109.376 416.22499999999997 110.45400000000001Q417.996 111.532 420.236 111.532Z" fill="#FFFFFF" fill-rule="nonzero"/>
  <path d="M463.25800000000004 118.0V108.956H461.774V99.1Q461.774 96.734 460.64 95.565Q459.50600000000003 94.396 457.05600000000004 94.396Q455.824 94.396 453.808 94.452Q451.79200000000003 94.508 449.65000000000003 94.606Q447.50800000000004 94.70400000000001 445.77200000000005 94.816V87.256Q447.088 87.144 448.817 87.039Q450.54600000000005 86.934 452.40100000000007 86.88499999999999Q454.25600000000003 86.836 455.85200000000003 86.836Q460.57000000000005 86.836 463.797 88.15899999999999Q467.024 89.482 468.697 92.19800000000001Q470.37 94.914 470.37 99.19800000000001V118.0ZM453.458 118.784Q450.182 118.784 447.683 117.61500000000001Q445.184 116.446 443.784 114.241Q442.384 112.036 442.384 108.956Q442.384 105.554 444.127 103.405Q445.87 101.256 448.992 100.227Q452.11400000000003 99.19800000000001 456.23 99.19800000000001H462.754V104.154H456.17400000000004Q453.80800000000005 104.154 452.53400000000005 105.32300000000001Q451.26000000000005 106.492 451.26000000000005 108.41Q451.26000000000005 110.286 452.53400000000005 111.441Q453.80800000000005 112.596 456.17400000000004 112.596Q457.658 112.596 458.869 112.064Q460.08000000000004 111.532 460.87100000000004 110.237Q461.66200000000003 108.94200000000001 461.774 106.66L463.90200000000004 108.872Q463.622 112.064 462.362 114.262Q461.10200000000003 116.46 458.89 117.622Q456.678 118.784 453.458 118.784Z" fill="#FFFFFF" fill-rule="nonzero"/>
  <path d="M477.132 130.152V122.564H483.54400000000004Q484.986 122.564 485.98699999999997 122.193Q486.988 121.822 487.625 120.975Q488.262 120.128 488.612 118.658L496.172 87.34H504.712L496.13 120.478Q495.23400000000004 124.076 493.63100000000003 126.204Q492.028 128.332 489.36800000000005 129.242Q486.708 130.152 482.62 130.152ZM486.764 117.328V110.328H493.26V117.328ZM483.096 117.328 473.66 87.34H482.67600000000004L491.58000000000004 117.328Z" fill="#FFFFFF" fill-rule="nonzero"/>
  <path d="M548.5319999999999 118.0 534.42 98.904H528.764L545.9 77.12H556.456L541.0559999999999 96.664L540.93 92.71600000000001L559.6479999999999 118.0ZM521.68 118.0V77.12H530.8639999999999V118.0Z" fill="#FFFFFF" fill-rule="nonzero"/>
  <path d="M576.308 119.092Q572.388 119.092 569.406 117.74799999999999Q566.424 116.404 564.422 114.12899999999999Q562.42 111.854 561.384 109.02600000000001Q560.348 106.19800000000001 560.348 103.216V102.124Q560.348 99.044 561.384 96.195Q562.42 93.346 564.4010000000001 91.113Q566.3820000000001 88.88 569.301 87.564Q572.22 86.248 575.972 86.248Q580.928 86.248 584.323 88.453Q587.718 90.658 589.489 94.235Q591.26 97.812 591.26 101.984V105.022H564.128V99.898H585.87L582.916 102.292Q582.916 99.52 582.139 97.574Q581.362 95.628 579.829 94.592Q578.296 93.556 575.972 93.556Q573.662 93.556 572.024 94.613Q570.386 95.67 569.539 97.707Q568.692 99.744 568.692 102.712Q568.692 105.44200000000001 569.4970000000001 107.486Q570.302 109.53 571.982 110.65700000000001Q573.662 111.784 576.308 111.784Q578.7860000000001 111.784 580.368 110.846Q581.95 109.908 582.482 108.466H590.714Q590.056 111.588 588.1030000000001 113.996Q586.15 116.404 583.1610000000001 117.74799999999999Q580.172 119.092 576.308 119.092Z" fill="#FFFFFF" fill-rule="nonzero"/>
  <path d="M597.1959999999999 118.0V87.34H604.308V100.5H603.804Q603.804 95.782 605.029 92.64599999999999Q606.254 89.50999999999999 608.697 87.935Q611.14 86.36 614.682 86.36H615.074Q620.4359999999999 86.36 623.278 89.86699999999999Q626.12 93.374 626.12 100.458V118.0H617.132V99.968Q617.132 97.504 615.6969999999999 95.95Q614.262 94.396 611.77 94.396Q609.25 94.396 607.717 95.971Q606.184 97.54599999999999 606.184 100.136V118.0Z" fill="#FFFFFF" fill-rule="nonzero"/>
  <path d="M633.148 130.152V122.564H639.56Q641.002 122.564 642.0029999999999 122.193Q643.004 121.822 643.6410000000001 120.975Q644.278 120.128 644.6279999999999 118.658L652.188 87.34H660.728L652.146 120.478Q651.25 124.076 649.6469999999999 126.204Q648.044 128.332 645.384 129.242Q642.7239999999999 130.152 638.636 130.152ZM642.78 117.328V110.328H649.276V117.328ZM639.112 117.328 629.6759999999999 87.34H638.692L647.596 117.328Z" fill="#FFFFFF" fill-rule="nonzero"/>
  <path d="M683.506 118.0V108.956H682.0219999999999V99.1Q682.0219999999999 96.734 680.8879999999999 95.565Q679.7539999999999 94.396 677.304 94.396Q676.072 94.396 674.056 94.452Q672.04 94.508 669.8979999999999 94.606Q667.756 94.70400000000001 666.02 94.816V87.256Q667.336 87.144 669.065 87.039Q670.794 86.934 672.6489999999999 86.88499999999999Q674.5039999999999 86.836 676.0999999999999 86.836Q680.818 86.836 684.045 88.15899999999999Q687.2719999999999 89.482 688.9449999999999 92.19800000000001Q690.6179999999999 94.914 690.6179999999999 99.19800000000001V118.0ZM673.7059999999999 118.784Q670.43 118.784 667.9309999999999 117.61500000000001Q665.4319999999999 116.446 664.0319999999999 114.241Q662.632 112.036 662.632 108.956Q662.632 105.554 664.375 103.405Q666.1179999999999 101.256 669.24 100.227Q672.362 99.19800000000001 676.478 99.19800000000001H683.002V104.154H676.4219999999999Q674.0559999999999 104.154 672.7819999999999 105.32300000000001Q671.5079999999999 106.492 671.5079999999999 108.41Q671.5079999999999 110.286 672.7819999999999 111.441Q674.0559999999999 112.596 676.4219999999999 112.596Q677.906 112.596 679.117 112.064Q680.328 111.532 681.1189999999999 110.237Q681.91 108.94200000000001 682.0219999999999 106.66L684.15 108.872Q683.87 112.064 682.6099999999999 114.262Q681.3499999999999 116.46 679.1379999999999 117.622Q676.9259999999999 118.784 673.7059999999999 118.784Z" fill="#FFFFFF" fill-rule="nonzero"/>
  <path d="M300.83 189.092Q295.272 189.092 291.457 187.328Q287.642 185.564 285.675 182.49099999999999Q283.708 179.418 283.708 175.456H292.64Q292.64 177.01 293.494 178.375Q294.348 179.74 296.14700000000005 180.55200000000002Q297.946 181.364 300.83 181.364Q303.392 181.364 305.135 180.671Q306.878 179.978 307.767 178.781Q308.656 177.584 308.656 176.016Q308.656 174.042 306.976 172.894Q305.296 171.746 301.558 171.438L298.45 171.172Q292.346 170.64 288.72 167.35Q285.094 164.06 285.094 158.628Q285.094 154.666 286.956 151.824Q288.818 148.982 292.192 147.449Q295.566 145.916 300.13 145.916Q304.974 145.916 308.411 147.56799999999998Q311.848 149.22 313.68899999999996 152.216Q315.53 155.212 315.53 159.216H306.598Q306.598 157.718 305.863 156.44400000000002Q305.128 155.17000000000002 303.693 154.407Q302.258 153.644 300.13 153.644Q298.114 153.644 296.756 154.309Q295.398 154.974 294.712 156.115Q294.026 157.256 294.026 158.628Q294.026 160.364 295.25800000000004 161.638Q296.49 162.912 299.318 163.15L302.426 163.416Q306.92 163.794 310.329 165.348Q313.738 166.902 315.663 169.555Q317.588 172.208 317.588 176.016Q317.588 179.936 315.55100000000004 182.89Q313.514 185.844 309.769 187.46800000000002Q306.024 189.092 300.83 189.092Z" fill="#FFFFFF" fill-rule="nonzero"/>
  <path d="M341.962 188.0V178.956H340.47799999999995V169.1Q340.47799999999995 166.734 339.34399999999994 165.565Q338.21 164.39600000000002 335.76 164.39600000000002Q334.52799999999996 164.39600000000002 332.51199999999994 164.452Q330.496 164.508 328.354 164.606Q326.212 164.704 324.476 164.816V157.256Q325.792 157.144 327.52099999999996 157.039Q329.25 156.934 331.105 156.885Q332.96 156.836 334.556 156.836Q339.274 156.836 342.501 158.159Q345.72799999999995 159.482 347.40099999999995 162.19799999999998Q349.07399999999996 164.914 349.07399999999996 169.198V188.0ZM332.162 188.784Q328.88599999999997 188.784 326.38699999999994 187.615Q323.888 186.446 322.48799999999994 184.24099999999999Q321.08799999999997 182.036 321.08799999999997 178.956Q321.08799999999997 175.554 322.83099999999996 173.405Q324.57399999999996 171.256 327.69599999999997 170.227Q330.818 169.198 334.93399999999997 169.198H341.45799999999997V174.154H334.878Q332.512 174.154 331.238 175.32299999999998Q329.964 176.492 329.964 178.41Q329.964 180.286 331.238 181.441Q332.512 182.596 334.878 182.596Q336.36199999999997 182.596 337.573 182.06400000000002Q338.784 181.532 339.575 180.23700000000002Q340.366 178.942 340.47799999999995 176.66L342.606 178.872Q342.32599999999996 182.064 341.066 184.262Q339.806 186.46 337.59399999999994 187.622Q335.38199999999995 188.784 332.162 188.784Z" fill="#FFFFFF" fill-rule="nonzero"/>
  <path d="M357.376 188.0V157.046Q357.376 151.726 360.38599999999997 149.143Q363.39599999999996 146.56 369.28999999999996 146.56H373.19599999999997V153.308H368.89799999999997Q367.37199999999996 153.308 366.54599999999994 154.141Q365.71999999999997 154.974 365.71999999999997 156.486V188.0ZM353.736 164.48V157.928H373.67199999999997V164.48Z" fill="#FFFFFF" fill-rule="nonzero"/>
  <path d="M396.50600000000003 188.0V178.956H395.022V169.1Q395.022 166.734 393.88800000000003 165.565Q392.754 164.39600000000002 390.30400000000003 164.39600000000002Q389.072 164.39600000000002 387.05600000000004 164.452Q385.04 164.508 382.898 164.606Q380.75600000000003 164.704 379.02000000000004 164.816V157.256Q380.336 157.144 382.06500000000005 157.039Q383.79400000000004 156.934 385.649 156.885Q387.504 156.836 389.1 156.836Q393.81800000000004 156.836 397.045 158.159Q400.272 159.482 401.945 162.19799999999998Q403.618 164.914 403.618 169.198V188.0ZM386.706 188.784Q383.43 188.784 380.93100000000004 187.615Q378.432 186.446 377.03200000000004 184.24099999999999Q375.632 182.036 375.632 178.956Q375.632 175.554 377.375 173.405Q379.118 171.256 382.24 170.227Q385.362 169.198 389.478 169.198H396.002V174.154H389.422Q387.05600000000004 174.154 385.78200000000004 175.32299999999998Q384.50800000000004 176.492 384.50800000000004 178.41Q384.50800000000004 180.286 385.78200000000004 181.441Q387.05600000000004 182.596 389.422 182.596Q390.906 182.596 392.117 182.06400000000002Q393.32800000000003 181.532 394.119 180.23700000000002Q394.91 178.942 395.022 176.66L397.15000000000003 178.872Q396.87 182.064 395.61 184.262Q394.35 186.46 392.13800000000003 187.622Q389.92600000000004 188.784 386.706 188.784Z" fill="#FFFFFF" fill-rule="nonzero"/>
  <path d="M411.21999999999997 188.0V157.34H418.332V170.5H418.19199999999995Q418.19199999999995 163.99 420.94999999999993 160.45499999999998Q423.70799999999997 156.92 428.972 156.92H430.14799999999997V164.676H427.90799999999996Q424.22599999999994 164.676 422.217 166.65699999999998Q420.20799999999997 168.638 420.20799999999997 172.362V188.0Z" fill="#FFFFFF" fill-rule="nonzero"/>
  <path d="M436.252 188.0V157.34H445.24V188.0ZM432.164 163.948V157.34H445.24V163.948ZM439.759 154.288Q437.23199999999997 154.288 436.028 152.979Q434.824 151.67000000000002 434.824 149.626Q434.824 147.582 436.033 146.273Q437.24199999999996 144.964 439.738 144.964Q442.286 144.964 443.469 146.273Q444.652 147.582 444.652 149.626Q444.652 151.67000000000002 443.469 152.979Q442.286 154.288 439.759 154.288Z" fill="#FFFFFF" fill-rule="nonzero"/>
  <path d="M465.148 188.98Q458.638 188.98 454.93499999999995 186.27100000000002Q451.23199999999997 183.562 450.99399999999997 178.69H458.974Q459.17 180.174 460.717 181.315Q462.264 182.456 465.316 182.456Q467.682 182.456 469.22900000000004 181.65800000000002Q470.776 180.86 470.776 179.334Q470.776 177.99 469.586 177.164Q468.396 176.338 465.386 176.044L462.978 175.792Q457.462 175.218 454.69 172.719Q451.918 170.22 451.918 166.286Q451.918 163.01 453.54200000000003 160.83999999999997Q455.166 158.67 458.036 157.557Q460.906 156.444 464.602 156.444Q470.524 156.444 474.164 159.041Q477.804 161.638 478.0 166.566H470.02Q469.838 165.06799999999998 468.473 164.01799999999997Q467.108 162.968 464.518 162.968Q462.432 162.968 461.207 163.752Q459.98199999999997 164.536 459.98199999999997 165.86599999999999Q459.98199999999997 167.168 461.046 167.84Q462.11 168.512 464.49 168.792L466.898 169.044Q472.554 169.632 475.697 172.166Q478.84 174.7 478.84 178.914Q478.84 182.008 477.15999999999997 184.269Q475.48 186.53 472.40700000000004 187.755Q469.334 188.98 465.148 188.98Z" fill="#FFFFFF" fill-rule="nonzero"/>
</svg>
