<?xml version="1.0" encoding="UTF-8"?>
<svg xmlns="http://www.w3.org/2000/svg" viewBox="0 0 480 500" role="img" aria-labelledby="logo-title">
  <title id="logo-title">Holiday Kenya Safaris</title>
  <g transform="translate(112 20)" aria-hidden="true">
    <path d="M 214.356 149.531 A 89 89 0 0 1 149.531 214.356" fill="none" stroke="#182B3A" stroke-width="15" stroke-linecap="butt"/>
    <path d="M 106.469 214.356 A 89 89 0 0 1 41.644 149.531" fill="none" stroke="#182B3A" stroke-width="15" stroke-linecap="butt"/>
    <path d="M 41.644 106.469 A 89 89 0 0 1 106.469 41.644" fill="none" stroke="#182B3A" stroke-width="15" stroke-linecap="butt"/>
    <path d="M 149.531 41.644 A 89 89 0 0 1 214.356 106.469" fill="none" stroke="#182B3A" stroke-width="15" stroke-linecap="butt"/>
    <polygon points="128,10 144,65 112,65" fill="#2C7A78"/>
    <polygon points="246,128 198,109 198,147" fill="#E1A62B"/>
    <polygon points="128,246 112,191 144,191" fill="#2C7A78"/>
    <polygon points="10,128 65,144 65,112" fill="#2C7A78"/>
    <path d="M91.59 169.0V88.7H101.82V169.0ZM66.07 169.0V88.7H76.3V169.0ZM74.54 137.43V119.61H93.35V137.43Z" fill="#182B3A" fill-rule="nonzero"/>
    <path d="M142.19 169.0 129.155 131.49H123.71000000000001L139.935 88.7H151.70499999999998L137.185 126.97999999999999V119.17L154.51 169.0ZM115.46000000000001 169.0V88.7H125.69V169.0Z" fill="#182B3A" fill-rule="nonzero"/>
    <path d="M176.125 171.2Q170.515 171.2 166.6925 167.68Q162.87 164.16 160.91750000000002 158.055Q158.965 151.95 158.965 144.03H168.865Q168.865 146.89 169.66250000000002 149.255Q170.46 151.62 172.055 152.94Q173.65 154.26 176.125 154.26Q178.26999999999998 154.26 179.78249999999997 153.16Q181.295 152.06 182.09249999999997 150.07999999999998Q182.89 148.1 182.89 145.35Q182.89 141.82999999999998 181.40499999999997 139.90499999999997Q179.92 137.98 176.4 137.43L173.815 136.99Q167.6 135.89 163.915 129.18Q160.23 122.47 160.23 111.36Q160.23 103.44 162.0725 97.83Q163.915 92.22 167.26999999999998 89.25Q170.625 86.28 175.19 86.28Q180.14 86.28 183.5775 89.58Q187.015 92.88 188.82999999999998 98.875Q190.64499999999998 104.87 190.64499999999998 112.78999999999999H180.745Q180.745 110.15 180.085 107.95Q179.425 105.75 178.1875 104.485Q176.95 103.22 175.19 103.22Q173.54 103.22 172.4125 104.265Q171.285 105.31 170.70749999999998 107.18Q170.13 109.05 170.13 111.36Q170.13 114.44 171.175 116.64Q172.22 118.84 174.805 119.28L177.39 119.72Q181.9 120.49000000000001 185.365 123.625Q188.82999999999998 126.75999999999999 190.81 132.14999999999998Q192.79 137.54 192.79 145.35Q192.79 153.16 190.7825 158.99Q188.775 164.82 185.0625 168.01Q181.35 171.2 176.125 171.2Z" fill="#182B3A" fill-rule="nonzero"/>
  </g>
  <path d="M64.916 358.0V317.12H74.1V358.0ZM38.511999999999986 358.0V317.12H47.695999999999984V358.0ZM46.07199999999999 341.48V333.444H66.53999999999999V341.48Z" fill="#182B3A" fill-rule="nonzero"/>
  <path d="M97.774 359.092Q93.728 359.092 90.592 357.832Q87.456 356.572 85.286 354.381Q83.116 352.19 81.99600000000001 349.36199999999997Q80.876 346.534 80.876 343.384V342.124Q80.876 338.89 82.045 336.01300000000003Q83.214 333.136 85.412 330.94500000000005Q87.61 328.754 90.74600000000001 327.501Q93.882 326.248 97.774 326.248Q101.708 326.248 104.82300000000001 327.501Q107.938 328.754 110.136 330.94500000000005Q112.334 333.136 113.503 336.01300000000003Q114.672 338.89 114.672 342.124V343.384Q114.672 346.534 113.55199999999999 349.36199999999997Q112.432 352.19 110.262 354.381Q108.092 356.572 104.95599999999999 357.832Q101.82 359.092 97.774 359.092ZM97.774 351.504Q100.378 351.504 102.128 350.377Q103.878 349.25 104.781 347.255Q105.684 345.26 105.684 342.754Q105.684 340.15 104.753 338.155Q103.822 336.16 102.051 334.99800000000005Q100.28 333.836 97.774 333.836Q95.282 333.836 93.50399999999999 334.99800000000005Q91.726 336.16 90.795 338.155Q89.864 340.15 89.864 342.754Q89.864 345.26 90.767 347.255Q91.67 349.25 93.441 350.377Q95.212 351.504 97.774 351.504Z" fill="#182B3A" fill-rule="nonzero"/>
  <path d="M121.336 358.0V317.12H130.32399999999998V358.0ZM117.696 323.728V317.12H130.32399999999998V323.728Z" fill="#182B3A" fill-rule="nonzero"/>
  <path d="M140.01199999999997 358.0V327.34H148.99999999999997V358.0ZM135.92399999999998 333.948V327.34H148.99999999999997V333.948ZM143.51899999999998 324.288Q140.992 324.288 139.78799999999998 322.97900000000004Q138.58399999999997 321.67 138.58399999999997 319.626Q138.58399999999997 317.582 139.79299999999998 316.273Q141.00199999999998 314.964 143.498 314.964Q146.046 314.964 147.22899999999998 316.273Q148.41199999999998 317.582 148.41199999999998 319.626Q148.41199999999998 321.67 147.22899999999998 322.97900000000004Q146.046 324.288 143.51899999999998 324.288Z" fill="#182B3A" fill-rule="nonzero"/>
  <path d="M169.916 359.008Q166.682 359.008 164.015 357.832Q161.34799999999998 356.656 159.402 354.549Q157.456 352.442 156.406 349.6Q155.356 346.758 155.356 343.426V342.166Q155.356 338.848 156.35699999999997 335.985Q157.35799999999998 333.122 159.22699999999998 330.973Q161.09599999999998 328.824 163.73499999999999 327.62Q166.374 326.416 169.62199999999999 326.416Q173.29 326.416 175.98499999999999 328.012Q178.67999999999998 329.608 180.19899999999998 332.716Q181.718 335.824 181.858 340.388L179.534 338.19V317.12H188.522V358.0H181.41V345.274H182.642Q182.50199999999998 349.656 180.84999999999997 352.736Q179.19799999999998 355.816 176.39799999999997 357.412Q173.59799999999998 359.008 169.916 359.008ZM172.15599999999998 351.532Q174.22799999999998 351.532 175.94299999999998 350.594Q177.658 349.656 178.70799999999997 347.85699999999997Q179.75799999999998 346.058 179.75799999999998 343.552V341.48Q179.75799999999998 339.03 178.67999999999998 337.35699999999997Q177.60199999999998 335.684 175.88 334.788Q174.158 333.892 172.142 333.892Q169.88799999999998 333.892 168.12399999999997 335.019Q166.35999999999999 336.146 165.35199999999998 338.141Q164.344 340.136 164.344 342.796Q164.344 345.456 165.35899999999998 347.416Q166.374 349.376 168.14499999999998 350.45399999999995Q169.916 351.532 172.15599999999998 351.532Z" fill="#182B3A" fill-rule="nonzero"/>
  <path d="M215.178 358.0V348.956H213.694V339.1Q213.694 336.734 212.56 335.565Q211.426 334.396 208.976 334.396Q207.74399999999997 334.396 205.72799999999998 334.452Q203.712 334.508 201.57 334.606Q199.428 334.704 197.69199999999998 334.816V327.256Q199.00799999999998 327.144 200.73699999999997 327.039Q202.46599999999998 326.934 204.32099999999997 326.885Q206.176 326.836 207.772 326.836Q212.48999999999998 326.836 215.71699999999998 328.159Q218.944 329.48199999999997 220.617 332.198Q222.29 334.914 222.29 339.198V358.0ZM205.378 358.784Q202.10199999999998 358.784 199.60299999999998 357.615Q197.10399999999998 356.446 195.70399999999998 354.241Q194.30399999999997 352.036 194.30399999999997 348.956Q194.30399999999997 345.554 196.04699999999997 343.405Q197.79 341.256 200.91199999999998 340.227Q204.034 339.198 208.14999999999998 339.198H214.67399999999998V344.154H208.094Q205.72799999999998 344.154 204.45399999999998 345.323Q203.17999999999998 346.492 203.17999999999998 348.41Q203.17999999999998 350.286 204.45399999999998 351.44100000000003Q205.72799999999998 352.596 208.094 352.596Q209.57799999999997 352.596 210.789 352.06399999999996Q212.0 351.532 212.791 350.23699999999997Q213.582 348.942 213.694 346.66L215.82199999999997 348.872Q215.54199999999997 352.064 214.28199999999998 354.262Q213.022 356.46 210.81 357.62199999999996Q208.59799999999998 358.784 205.378 358.784Z" fill="#182B3A" fill-rule="nonzero"/>
  <path d="M229.052 370.152V362.564H235.464Q236.906 362.564 237.907 362.193Q238.90800000000002 361.822 239.54500000000002 360.975Q240.18200000000002 360.128 240.532 358.658L248.092 327.34H256.632L248.05 360.478Q247.154 364.076 245.551 366.204Q243.948 368.332 241.288 369.24199999999996Q238.62800000000001 370.152 234.54 370.152ZM238.684 357.328V350.328H245.18V357.328ZM235.016 357.328 225.58 327.34H234.596L243.5 357.328Z" fill="#182B3A" fill-rule="nonzero"/>
  <path d="M300.452 358.0 286.34 338.904H280.68399999999997L297.82 317.12H308.376L292.976 336.664L292.84999999999997 332.716L311.568 358.0ZM273.59999999999997 358.0V317.12H282.784V358.0Z" fill="#182B3A" fill-rule="nonzero"/>
  <path d="M328.22799999999995 359.092Q324.308 359.092 321.32599999999996 357.748Q318.34399999999994 356.404 316.342 354.129Q314.34 351.854 313.304 349.02599999999995Q312.268 346.198 312.268 343.216V342.124Q312.268 339.044 313.304 336.195Q314.34 333.346 316.32099999999997 331.113Q318.30199999999996 328.88 321.221 327.56399999999996Q324.14 326.248 327.89199999999994 326.248Q332.84799999999996 326.248 336.24299999999994 328.453Q339.638 330.658 341.409 334.235Q343.17999999999995 337.812 343.17999999999995 341.984V345.022H316.04799999999994V339.898H337.78999999999996L334.83599999999996 342.292Q334.83599999999996 339.52 334.05899999999997 337.57399999999996Q333.282 335.628 331.74899999999997 334.592Q330.21599999999995 333.556 327.89199999999994 333.556Q325.582 333.556 323.94399999999996 334.613Q322.306 335.67 321.45899999999995 337.707Q320.61199999999997 339.744 320.61199999999997 342.712Q320.61199999999997 345.442 321.417 347.486Q322.222 349.53 323.902 350.657Q325.582 351.784 328.22799999999995 351.784Q330.70599999999996 351.784 332.28799999999995 350.846Q333.86999999999995 349.908 334.402 348.466H342.63399999999996Q341.97599999999994 351.588 340.02299999999997 353.996Q338.07 356.404 335.081 357.748Q332.092 359.092 328.22799999999995 359.092Z" fill="#182B3A" fill-rule="nonzero"/>
  <path d="M349.11600000000004 358.0V327.34H356.22800000000007V340.5H355.72400000000005Q355.72400000000005 335.782 356.94900000000007 332.64599999999996Q358.17400000000004 329.51 360.6170000000001 327.935Q363.06000000000006 326.36 366.60200000000003 326.36H366.994Q372.35600000000005 326.36 375.19800000000004 329.867Q378.04 333.374 378.04 340.45799999999997V358.0H369.052V339.968Q369.052 337.504 367.617 335.95000000000005Q366.182 334.396 363.69000000000005 334.396Q361.17 334.396 359.63700000000006 335.971Q358.10400000000004 337.546 358.10400000000004 340.136V358.0Z" fill="#182B3A" fill-rule="nonzero"/>
  <path d="M385.06800000000004 370.152V362.564H391.4800000000001Q392.922 362.564 393.923 362.193Q394.92400000000004 361.822 395.56100000000004 360.975Q396.19800000000004 360.128 396.54800000000006 358.658L404.10800000000006 327.34H412.648L404.06600000000003 360.478Q403.1700000000001 364.076 401.56700000000006 366.204Q399.96400000000006 368.332 397.3040000000001 369.24199999999996Q394.64400000000006 370.152 390.55600000000004 370.152ZM394.70000000000005 357.328V350.328H401.196V357.328ZM391.03200000000004 357.328 381.59600000000006 327.34H390.6120000000001L399.5160000000001 357.328Z" fill="#182B3A" fill-rule="nonzero"/>
  <path d="M435.42600000000004 358.0V348.956H433.942V339.1Q433.942 336.734 432.808 335.565Q431.67400000000004 334.396 429.22400000000005 334.396Q427.992 334.396 425.976 334.452Q423.96000000000004 334.508 421.81800000000004 334.606Q419.67600000000004 334.704 417.94000000000005 334.816V327.256Q419.25600000000003 327.144 420.985 327.039Q422.71400000000006 326.934 424.5690000000001 326.885Q426.42400000000004 326.836 428.02000000000004 326.836Q432.73800000000006 326.836 435.96500000000003 328.159Q439.192 329.48199999999997 440.865 332.198Q442.538 334.914 442.538 339.198V358.0ZM425.62600000000003 358.784Q422.35 358.784 419.851 357.615Q417.35200000000003 356.446 415.952 354.241Q414.552 352.036 414.552 348.956Q414.552 345.554 416.295 343.405Q418.038 341.256 421.16 340.227Q424.28200000000004 339.198 428.398 339.198H434.922V344.154H428.34200000000004Q425.97600000000006 344.154 424.70200000000006 345.323Q423.42800000000005 346.492 423.42800000000005 348.41Q423.42800000000005 350.286 424.70200000000006 351.44100000000003Q425.97600000000006 352.596 428.34200000000004 352.596Q429.826 352.596 431.03700000000003 352.06399999999996Q432.24800000000005 351.532 433.03900000000004 350.23699999999997Q433.83000000000004 348.942 433.942 346.66L436.07000000000005 348.872Q435.79 352.064 434.53000000000003 354.262Q433.27000000000004 356.46 431.058 357.62199999999996Q428.846 358.784 425.62600000000003 358.784Z" fill="#182B3A" fill-rule="nonzero"/>
  <path d="M159.542 429.092Q153.98399999999998 429.092 150.16899999999998 427.328Q146.35399999999998 425.564 144.387 422.491Q142.42 419.418 142.42 415.456H151.35199999999998Q151.35199999999998 417.01 152.206 418.375Q153.06 419.74 154.85899999999998 420.552Q156.658 421.364 159.542 421.364Q162.10399999999998 421.364 163.84699999999998 420.671Q165.58999999999997 419.978 166.47899999999998 418.781Q167.368 417.584 167.368 416.016Q167.368 414.042 165.688 412.894Q164.00799999999998 411.746 160.26999999999998 411.438L157.16199999999998 411.172Q151.058 410.64 147.432 407.35Q143.80599999999998 404.06 143.80599999999998 398.628Q143.80599999999998 394.666 145.668 391.82399999999996Q147.53 388.98199999999997 150.904 387.44899999999996Q154.278 385.916 158.84199999999998 385.916Q163.68599999999998 385.916 167.123 387.568Q170.56 389.22 172.401 392.216Q174.242 395.212 174.242 399.216H165.31Q165.31 397.718 164.575 396.444Q163.83999999999997 395.17 162.40499999999997 394.40700000000004Q160.97 393.644 158.84199999999998 393.644Q156.826 393.644 155.468 394.30899999999997Q154.10999999999999 394.974 153.42399999999998 396.115Q152.738 397.256 152.738 398.628Q152.738 400.364 153.97 401.638Q155.202 402.912 158.03 403.15L161.13799999999998 403.416Q165.632 403.794 169.041 405.34799999999996Q172.45 406.902 174.375 409.555Q176.29999999999998 412.208 176.29999999999998 416.016Q176.29999999999998 419.936 174.26299999999998 422.89Q172.226 425.844 168.481 427.46799999999996Q164.736 429.092 159.542 429.092Z" fill="#2C7A78" fill-rule="nonzero"/>
  <path d="M200.67399999999998 428.0V418.956H199.19V409.1Q199.19 406.734 198.05599999999998 405.565Q196.922 404.396 194.47199999999998 404.396Q193.23999999999998 404.396 191.224 404.452Q189.208 404.508 187.066 404.606Q184.924 404.704 183.188 404.816V397.256Q184.504 397.144 186.233 397.039Q187.962 396.934 189.817 396.885Q191.672 396.836 193.268 396.836Q197.986 396.836 201.213 398.159Q204.44 399.48199999999997 206.113 402.198Q207.786 404.914 207.786 409.198V428.0ZM190.874 428.784Q187.59799999999998 428.784 185.099 427.615Q182.6 426.446 181.2 424.241Q179.79999999999998 422.036 179.79999999999998 418.956Q179.79999999999998 415.554 181.543 413.405Q183.286 411.256 186.40800000000002 410.227Q189.53 409.198 193.646 409.198H200.17V414.154H193.59Q191.224 414.154 189.95 415.323Q188.676 416.492 188.676 418.41Q188.676 420.286 189.95 421.44100000000003Q191.224 422.596 193.59 422.596Q195.07399999999998 422.596 196.28499999999997 422.06399999999996Q197.49599999999998 421.532 198.28699999999998 420.23699999999997Q199.078 418.942 199.19 416.66L201.31799999999998 418.872Q201.03799999999998 422.064 199.778 424.262Q198.518 426.46 196.30599999999998 427.62199999999996Q194.094 428.784 190.874 428.784Z" fill="#2C7A78" fill-rule="nonzero"/>
  <path d="M216.08799999999997 428.0V397.046Q216.08799999999997 391.726 219.09799999999996 389.14300000000003Q222.10799999999998 386.56 228.00199999999998 386.56H231.908V393.308H227.60999999999999Q226.08399999999997 393.308 225.25799999999998 394.14099999999996Q224.432 394.974 224.432 396.486V428.0ZM212.44799999999998 404.48V397.928H232.384V404.48Z" fill="#2C7A78" fill-rule="nonzero"/>
  <path d="M255.21800000000002 428.0V418.956H253.734V409.1Q253.734 406.734 252.60000000000002 405.565Q251.466 404.396 249.01600000000002 404.396Q247.784 404.396 245.768 404.452Q243.752 404.508 241.61 404.606Q239.46800000000002 404.704 237.732 404.816V397.256Q239.048 397.144 240.777 397.039Q242.506 396.934 244.361 396.885Q246.216 396.836 247.812 396.836Q252.53 396.836 255.757 398.159Q258.984 399.48199999999997 260.657 402.198Q262.33 404.914 262.33 409.198V428.0ZM245.418 428.784Q242.142 428.784 239.643 427.615Q237.144 426.446 235.744 424.241Q234.344 422.036 234.344 418.956Q234.344 415.554 236.087 413.405Q237.83 411.256 240.952 410.227Q244.074 409.198 248.19 409.198H254.714V414.154H248.13400000000001Q245.768 414.154 244.494 415.323Q243.22 416.492 243.22 418.41Q243.22 420.286 244.494 421.44100000000003Q245.768 422.596 248.13400000000001 422.596Q249.618 422.596 250.829 422.06399999999996Q252.04000000000002 421.532 252.83100000000002 420.23699999999997Q253.622 418.942 253.734 416.66L255.862 418.872Q255.582 422.064 254.322 424.262Q253.062 426.46 250.85000000000002 427.62199999999996Q248.638 428.784 245.418 428.784Z" fill="#2C7A78" fill-rule="nonzero"/>
  <path d="M269.93199999999996 428.0V397.34H277.044V410.5H276.90399999999994Q276.90399999999994 403.99 279.6619999999999 400.45500000000004Q282.41999999999996 396.92 287.68399999999997 396.92H288.85999999999996V404.676H286.61999999999995Q282.93799999999993 404.676 280.929 406.657Q278.91999999999996 408.638 278.91999999999996 412.362V428.0Z" fill="#2C7A78" fill-rule="nonzero"/>
  <path d="M294.964 428.0V397.34H303.952V428.0ZM290.876 403.948V397.34H303.952V403.948ZM298.471 394.288Q295.94399999999996 394.288 294.74 392.97900000000004Q293.536 391.67 293.536 389.626Q293.536 387.582 294.745 386.273Q295.95399999999995 384.964 298.45 384.964Q300.998 384.964 302.181 386.273Q303.364 387.582 303.364 389.626Q303.364 391.67 302.181 392.97900000000004Q300.998 394.288 298.471 394.288Z" fill="#2C7A78" fill-rule="nonzero"/>
  <path d="M323.86 428.98Q317.34999999999997 428.98 313.64699999999993 426.271Q309.94399999999996 423.562 309.70599999999996 418.69H317.686Q317.882 420.174 319.429 421.315Q320.976 422.456 324.02799999999996 422.456Q326.394 422.456 327.94100000000003 421.658Q329.488 420.86 329.488 419.334Q329.488 417.99 328.298 417.164Q327.108 416.338 324.098 416.044L321.69 415.792Q316.174 415.218 313.402 412.71900000000005Q310.63 410.22 310.63 406.286Q310.63 403.01 312.254 400.84000000000003Q313.878 398.67 316.748 397.557Q319.618 396.444 323.31399999999996 396.444Q329.236 396.444 332.876 399.041Q336.51599999999996 401.638 336.712 406.566H328.73199999999997Q328.55 405.068 327.185 404.01800000000003Q325.82 402.968 323.22999999999996 402.968Q321.144 402.968 319.919 403.752Q318.69399999999996 404.536 318.69399999999996 405.866Q318.69399999999996 407.168 319.758 407.84000000000003Q320.822 408.512 323.202 408.792L325.61 409.044Q331.26599999999996 409.632 334.409 412.166Q337.55199999999996 414.7 337.55199999999996 418.914Q337.55199999999996 422.008 335.87199999999996 424.269Q334.192 426.53 331.119 427.755Q328.046 428.98 323.86 428.98Z" fill="#2C7A78" fill-rule="nonzero"/>
</svg>
